solid Default
  facet normal -9.876591e-01 -1.566190e-01 0.000000e+00
    outer loop
      vertex -1.375000e+01 -3.500000e+00 0.000000e+00
      vertex -1.355400e+01 -4.736000e+00 0.000000e+00
      vertex -1.375000e+01 -3.500000e+00 1.500000e+00
    endloop
  endfacet
  facet normal -9.876591e-01 -1.566190e-01 0.000000e+00
    outer loop
      vertex -1.375000e+01 -3.500000e+00 1.500000e+00
      vertex -1.355400e+01 -4.736000e+00 0.000000e+00
      vertex -1.355400e+01 -4.736000e+00 1.500000e+00
    endloop
  endfacet
  facet normal 0.000000e+00 0.000000e+00 -1.000000e+00
    outer loop
      vertex -1.375000e+01 -3.500000e+00 0.000000e+00
      vertex -1.375000e+01 3.500000e+00 0.000000e+00
      vertex -1.355400e+01 -4.736000e+00 0.000000e+00
    endloop
  endfacet
  facet normal 0.000000e+00 0.000000e+00 -1.000000e+00
    outer loop
      vertex -1.355400e+01 -4.736000e+00 0.000000e+00
      vertex -1.375000e+01 3.500000e+00 0.000000e+00
      vertex -1.355400e+01 4.736000e+00 0.000000e+00
    endloop
  endfacet
  facet normal 0.000000e+00 0.000000e+00 -1.000000e+00
    outer loop
      vertex -1.355400e+01 -4.736000e+00 0.000000e+00
      vertex -1.355400e+01 4.736000e+00 0.000000e+00
      vertex -1.298600e+01 5.851000e+00 0.000000e+00
    endloop
  endfacet
  facet normal 0.000000e+00 0.000000e+00 -1.000000e+00
    outer loop
      vertex -1.355400e+01 -4.736000e+00 0.000000e+00
      vertex -1.298600e+01 5.851000e+00 0.000000e+00
      vertex -1.210100e+01 6.736000e+00 0.000000e+00
    endloop
  endfacet
  facet normal 0.000000e+00 0.000000e+00 -1.000000e+00
    outer loop
      vertex -1.355400e+01 -4.736000e+00 0.000000e+00
      vertex -1.210100e+01 6.736000e+00 0.000000e+00
      vertex -1.098600e+01 7.304000e+00 0.000000e+00
    endloop
  endfacet
  facet normal 0.000000e+00 0.000000e+00 -1.000000e+00
    outer loop
      vertex -1.355400e+01 -4.736000e+00 0.000000e+00
      vertex -1.098600e+01 7.304000e+00 0.000000e+00
      vertex -9.750000e+00 7.500000e+00 0.000000e+00
    endloop
  endfacet
  facet normal 0.000000e+00 0.000000e+00 -1.000000e+00
    outer loop
      vertex -8.787000e+00 3.309000e+00 0.000000e+00
      vertex -9.750000e+00 7.500000e+00 0.000000e+00
      vertex 9.750000e+00 7.500000e+00 0.000000e+00
    endloop
  endfacet
  facet normal 0.000000e+00 0.000000e+00 -1.000000e+00
    outer loop
      vertex -1.066000e+00 3.451000e+00 0.000000e+00
      vertex 9.750000e+00 7.500000e+00 0.000000e+00
      vertex -7.869997e-01 3.309000e+00 0.000000e+00
    endloop
  endfacet
  facet normal 0.000000e+00 0.000000e+00 -1.000000e+00
    outer loop
      vertex 7.099800e+00 2.615400e+00 0.000000e+00
      vertex 1.298600e+01 5.851000e+00 0.000000e+00
      vertex 1.355400e+01 4.736000e+00 0.000000e+00
    endloop
  endfacet
  facet normal 0.000000e+00 0.000000e+00 -1.000000e+00
    outer loop
      vertex 7.866400e+00 2.224800e+00 0.000000e+00
      vertex 1.355400e+01 4.736000e+00 0.000000e+00
      vertex 1.375000e+01 3.500000e+00 0.000000e+00
    endloop
  endfacet
  facet normal 0.000000e+00 0.000000e+00 -1.000000e+00
    outer loop
      vertex 8.474800e+00 -1.616410e+00 0.000000e+00
      vertex 1.375000e+01 3.500000e+00 0.000000e+00
      vertex 1.375000e+01 -3.500000e+00 0.000000e+00
    endloop
  endfacet
  facet normal 0.000000e+00 0.000000e+00 -1.000000e+00
    outer loop
      vertex -1.355400e+01 -4.736000e+00 0.000000e+00
      vertex 1.375000e+01 -3.500000e+00 0.000000e+00
      vertex 1.355400e+01 -4.736000e+00 0.000000e+00
    endloop
  endfacet
  facet normal 0.000000e+00 0.000000e+00 -1.000000e+00
    outer loop
      vertex -1.355400e+01 -4.736000e+00 0.000000e+00
      vertex 1.355400e+01 -4.736000e+00 0.000000e+00
      vertex 1.298600e+01 -5.851000e+00 0.000000e+00
    endloop
  endfacet
  facet normal 0.000000e+00 0.000000e+00 -1.000000e+00
    outer loop
      vertex -1.355400e+01 -4.736000e+00 0.000000e+00
      vertex 1.298600e+01 -5.851000e+00 0.000000e+00
      vertex 1.210100e+01 -6.736000e+00 0.000000e+00
    endloop
  endfacet
  facet normal 0.000000e+00 0.000000e+00 -1.000000e+00
    outer loop
      vertex -1.355400e+01 -4.736000e+00 0.000000e+00
      vertex 1.210100e+01 -6.736000e+00 0.000000e+00
      vertex 1.098600e+01 -7.304000e+00 0.000000e+00
    endloop
  endfacet
  facet normal 0.000000e+00 0.000000e+00 -1.000000e+00
    outer loop
      vertex -1.355400e+01 -4.736000e+00 0.000000e+00
      vertex 1.098600e+01 -7.304000e+00 0.000000e+00
      vertex 9.750000e+00 -7.500000e+00 0.000000e+00
    endloop
  endfacet
  facet normal 0.000000e+00 0.000000e+00 -1.000000e+00
    outer loop
      vertex -1.355400e+01 -4.736000e+00 0.000000e+00
      vertex 9.750000e+00 -7.500000e+00 0.000000e+00
      vertex -9.750000e+00 -7.500000e+00 0.000000e+00
    endloop
  endfacet
  facet normal 0.000000e+00 0.000000e+00 -1.000000e+00
    outer loop
      vertex -1.355400e+01 -4.736000e+00 0.000000e+00
      vertex -9.750000e+00 -7.500000e+00 0.000000e+00
      vertex -1.098600e+01 -7.304000e+00 0.000000e+00
    endloop
  endfacet
  facet normal 0.000000e+00 0.000000e+00 -1.000000e+00
    outer loop
      vertex -1.355400e+01 -4.736000e+00 0.000000e+00
      vertex -1.098600e+01 -7.304000e+00 0.000000e+00
      vertex -1.210100e+01 -6.736000e+00 0.000000e+00
    endloop
  endfacet
  facet normal 0.000000e+00 0.000000e+00 -1.000000e+00
    outer loop
      vertex -1.355400e+01 -4.736000e+00 0.000000e+00
      vertex -1.210100e+01 -6.736000e+00 0.000000e+00
      vertex -1.298600e+01 -5.851000e+00 0.000000e+00
    endloop
  endfacet
  facet normal 0.000000e+00 0.000000e+00 -1.000000e+00
    outer loop
      vertex -3.125000e+00 -2.500000e+00 0.000000e+00
      vertex -9.066000e+00 -3.451000e+00 0.000000e+00
      vertex -8.787000e+00 -3.309000e+00 0.000000e+00
    endloop
  endfacet
  facet normal 0.000000e+00 0.000000e+00 -1.000000e+00
    outer loop
      vertex -1.355400e+01 -4.736000e+00 0.000000e+00
      vertex -1.112500e+01 2.500000e+00 0.000000e+00
      vertex -1.112500e+01 -2.500000e+00 0.000000e+00
    endloop
  endfacet
  facet normal 0.000000e+00 0.000000e+00 -1.000000e+00
    outer loop
      vertex -3.125000e+00 -2.500000e+00 0.000000e+00
      vertex -8.424000e+00 -2.809000e+00 0.000000e+00
      vertex -8.375000e+00 -2.500000e+00 0.000000e+00
    endloop
  endfacet
  facet normal 0.000000e+00 0.000000e+00 -1.000000e+00
    outer loop
      vertex -1.355400e+01 -4.736000e+00 0.000000e+00
      vertex -1.112500e+01 -2.500000e+00 0.000000e+00
      vertex -1.107600e+01 -2.809000e+00 0.000000e+00
    endloop
  endfacet
  facet normal 0.000000e+00 0.000000e+00 -1.000000e+00
    outer loop
      vertex -3.750000e-01 2.500000e+00 0.000000e+00
      vertex 1.298600e+01 5.851000e+00 0.000000e+00
      vertex 5.400200e+00 2.615400e+00 0.000000e+00
    endloop
  endfacet
  facet normal 0.000000e+00 0.000000e+00 -1.000000e+00
    outer loop
      vertex -1.355400e+01 -4.736000e+00 0.000000e+00
      vertex -1.107600e+01 -2.809000e+00 0.000000e+00
      vertex -1.093400e+01 -3.088000e+00 0.000000e+00
    endloop
  endfacet
  facet normal 0.000000e+00 0.000000e+00 -1.000000e+00
    outer loop
      vertex -1.043400e+01 -3.451000e+00 0.000000e+00
      vertex -1.355400e+01 -4.736000e+00 0.000000e+00
      vertex -1.071300e+01 -3.309000e+00 0.000000e+00
    endloop
  endfacet
  facet normal 0.000000e+00 0.000000e+00 -1.000000e+00
    outer loop
      vertex -4.239998e-01 2.809000e+00 0.000000e+00
      vertex 9.750000e+00 7.500000e+00 0.000000e+00
      vertex -3.750000e-01 2.500000e+00 0.000000e+00
    endloop
  endfacet
  facet normal 0.000000e+00 0.000000e+00 -1.000000e+00
    outer loop
      vertex -1.066000e+00 -3.451000e+00 0.000000e+00
      vertex 1.375000e+01 -3.500000e+00 0.000000e+00
      vertex -1.375000e+00 -3.500000e+00 0.000000e+00
    endloop
  endfacet
  facet normal 0.000000e+00 0.000000e+00 -1.000000e+00
    outer loop
      vertex -9.375000e+00 -3.500000e+00 0.000000e+00
      vertex -9.066000e+00 -3.451000e+00 0.000000e+00
      vertex -2.125000e+00 -3.500000e+00 0.000000e+00
    endloop
  endfacet
  facet normal 0.000000e+00 0.000000e+00 -1.000000e+00
    outer loop
      vertex -9.375000e+00 -3.500000e+00 0.000000e+00
      vertex -1.355400e+01 -4.736000e+00 0.000000e+00
      vertex -1.012500e+01 -3.500000e+00 0.000000e+00
    endloop
  endfacet
  facet normal 0.000000e+00 0.000000e+00 -1.000000e+00
    outer loop
      vertex -3.750000e-01 2.500000e+00 0.000000e+00
      vertex 9.750000e+00 7.500000e+00 0.000000e+00
      vertex 1.098600e+01 7.304000e+00 0.000000e+00
    endloop
  endfacet
  facet normal 0.000000e+00 0.000000e+00 -1.000000e+00
    outer loop
      vertex -1.012500e+01 -3.500000e+00 0.000000e+00
      vertex -1.355400e+01 -4.736000e+00 0.000000e+00
      vertex -1.043400e+01 -3.451000e+00 0.000000e+00
    endloop
  endfacet
  facet normal 0.000000e+00 0.000000e+00 -1.000000e+00
    outer loop
      vertex -2.434000e+00 3.451000e+00 0.000000e+00
      vertex -8.375000e+00 2.500000e+00 0.000000e+00
      vertex 9.750000e+00 7.500000e+00 0.000000e+00
    endloop
  endfacet
  facet normal 0.000000e+00 0.000000e+00 -1.000000e+00
    outer loop
      vertex -8.375000e+00 2.500000e+00 0.000000e+00
      vertex -8.424000e+00 2.809000e+00 0.000000e+00
      vertex 9.750000e+00 7.500000e+00 0.000000e+00
    endloop
  endfacet
  facet normal 0.000000e+00 0.000000e+00 -1.000000e+00
    outer loop
      vertex -8.424000e+00 2.809000e+00 0.000000e+00
      vertex -8.566000e+00 3.088000e+00 0.000000e+00
      vertex 9.750000e+00 7.500000e+00 0.000000e+00
    endloop
  endfacet
  facet normal 0.000000e+00 0.000000e+00 -1.000000e+00
    outer loop
      vertex -9.066000e+00 3.451000e+00 0.000000e+00
      vertex -9.750000e+00 7.500000e+00 0.000000e+00
      vertex -8.787000e+00 3.309000e+00 0.000000e+00
    endloop
  endfacet
  facet normal 0.000000e+00 0.000000e+00 -1.000000e+00
    outer loop
      vertex -1.107600e+01 2.809000e+00 0.000000e+00
      vertex -9.750000e+00 7.500000e+00 0.000000e+00
      vertex -1.093400e+01 3.088000e+00 0.000000e+00
    endloop
  endfacet
  facet normal 0.000000e+00 0.000000e+00 -1.000000e+00
    outer loop
      vertex -9.375000e+00 3.500000e+00 0.000000e+00
      vertex -9.750000e+00 7.500000e+00 0.000000e+00
      vertex -9.066000e+00 3.451000e+00 0.000000e+00
    endloop
  endfacet
  facet normal 0.000000e+00 0.000000e+00 -1.000000e+00
    outer loop
      vertex -1.012500e+01 3.500000e+00 0.000000e+00
      vertex -9.750000e+00 7.500000e+00 0.000000e+00
      vertex -9.375000e+00 3.500000e+00 0.000000e+00
    endloop
  endfacet
  facet normal 0.000000e+00 0.000000e+00 -1.000000e+00
    outer loop
      vertex -1.043400e+01 3.451000e+00 0.000000e+00
      vertex -9.750000e+00 7.500000e+00 0.000000e+00
      vertex -1.012500e+01 3.500000e+00 0.000000e+00
    endloop
  endfacet
  facet normal 0.000000e+00 0.000000e+00 -1.000000e+00
    outer loop
      vertex -1.071300e+01 3.309000e+00 0.000000e+00
      vertex -9.750000e+00 7.500000e+00 0.000000e+00
      vertex -1.043400e+01 3.451000e+00 0.000000e+00
    endloop
  endfacet
  facet normal 0.000000e+00 0.000000e+00 -1.000000e+00
    outer loop
      vertex -1.093400e+01 3.088000e+00 0.000000e+00
      vertex -9.750000e+00 7.500000e+00 0.000000e+00
      vertex -1.071300e+01 3.309000e+00 0.000000e+00
    endloop
  endfacet
  facet normal 0.000000e+00 0.000000e+00 -1.000000e+00
    outer loop
      vertex -3.125000e+00 -2.500000e+00 0.000000e+00
      vertex -8.787000e+00 -3.309000e+00 0.000000e+00
      vertex -8.566000e+00 -3.088000e+00 0.000000e+00
    endloop
  endfacet
  facet normal 0.000000e+00 0.000000e+00 -1.000000e+00
    outer loop
      vertex -1.355400e+01 -4.736000e+00 0.000000e+00
      vertex -9.750000e+00 7.500000e+00 0.000000e+00
      vertex -1.107600e+01 2.809000e+00 0.000000e+00
    endloop
  endfacet
  facet normal 0.000000e+00 0.000000e+00 -1.000000e+00
    outer loop
      vertex -1.355400e+01 -4.736000e+00 0.000000e+00
      vertex -1.107600e+01 2.809000e+00 0.000000e+00
      vertex -1.112500e+01 2.500000e+00 0.000000e+00
    endloop
  endfacet
  facet normal 0.000000e+00 0.000000e+00 -1.000000e+00
    outer loop
      vertex -8.787000e+00 3.309000e+00 0.000000e+00
      vertex 9.750000e+00 7.500000e+00 0.000000e+00
      vertex -8.566000e+00 3.088000e+00 0.000000e+00
    endloop
  endfacet
  facet normal 0.000000e+00 0.000000e+00 -1.000000e+00
    outer loop
      vertex -3.750000e-01 2.500000e+00 0.000000e+00
      vertex 4.025200e+00 1.616410e+00 0.000000e+00
      vertex 3.634600e+00 8.498001e-01 0.000000e+00
    endloop
  endfacet
  facet normal 0.000000e+00 0.000000e+00 -1.000000e+00
    outer loop
      vertex -9.066000e+00 -3.451000e+00 0.000000e+00
      vertex -3.125000e+00 -2.500000e+00 0.000000e+00
      vertex -3.076000e+00 -2.809000e+00 0.000000e+00
    endloop
  endfacet
  facet normal 0.000000e+00 0.000000e+00 -1.000000e+00
    outer loop
      vertex -9.066000e+00 -3.451000e+00 0.000000e+00
      vertex -3.076000e+00 -2.809000e+00 0.000000e+00
      vertex -2.934000e+00 -3.088000e+00 0.000000e+00
    endloop
  endfacet
  facet normal 0.000000e+00 0.000000e+00 -1.000000e+00
    outer loop
      vertex -9.066000e+00 -3.451000e+00 0.000000e+00
      vertex -2.934000e+00 -3.088000e+00 0.000000e+00
      vertex -2.713000e+00 -3.309000e+00 0.000000e+00
    endloop
  endfacet
  facet normal 0.000000e+00 0.000000e+00 -1.000000e+00
    outer loop
      vertex -9.066000e+00 -3.451000e+00 0.000000e+00
      vertex -2.713000e+00 -3.309000e+00 0.000000e+00
      vertex -2.434000e+00 -3.451000e+00 0.000000e+00
    endloop
  endfacet
  facet normal 0.000000e+00 0.000000e+00 -1.000000e+00
    outer loop
      vertex -3.750000e-01 2.500000e+00 0.000000e+00
      vertex 3.634600e+00 8.498001e-01 0.000000e+00
      vertex 3.500000e+00 0.000000e+00 0.000000e+00
    endloop
  endfacet
  facet normal 0.000000e+00 0.000000e+00 -1.000000e+00
    outer loop
      vertex -1.355400e+01 -4.736000e+00 0.000000e+00
      vertex -9.375000e+00 -3.500000e+00 0.000000e+00
      vertex -2.125000e+00 -3.500000e+00 0.000000e+00
    endloop
  endfacet
  facet normal 0.000000e+00 0.000000e+00 -1.000000e+00
    outer loop
      vertex -1.355400e+01 -4.736000e+00 0.000000e+00
      vertex -2.125000e+00 -3.500000e+00 0.000000e+00
      vertex -1.375000e+00 -3.500000e+00 0.000000e+00
    endloop
  endfacet
  facet normal 0.000000e+00 0.000000e+00 -1.000000e+00
    outer loop
      vertex -1.355400e+01 -4.736000e+00 0.000000e+00
      vertex -1.375000e+00 -3.500000e+00 0.000000e+00
      vertex 1.375000e+01 -3.500000e+00 0.000000e+00
    endloop
  endfacet
  facet normal 0.000000e+00 0.000000e+00 -1.000000e+00
    outer loop
      vertex -7.869997e-01 -3.309000e+00 0.000000e+00
      vertex 1.375000e+01 -3.500000e+00 0.000000e+00
      vertex -1.066000e+00 -3.451000e+00 0.000000e+00
    endloop
  endfacet
  facet normal 0.000000e+00 0.000000e+00 -1.000000e+00
    outer loop
      vertex -5.660000e-01 -3.088000e+00 0.000000e+00
      vertex 1.375000e+01 -3.500000e+00 0.000000e+00
      vertex -7.869997e-01 -3.309000e+00 0.000000e+00
    endloop
  endfacet
  facet normal 0.000000e+00 0.000000e+00 -1.000000e+00
    outer loop
      vertex -4.239998e-01 -2.809000e+00 0.000000e+00
      vertex 1.375000e+01 -3.500000e+00 0.000000e+00
      vertex -5.660000e-01 -3.088000e+00 0.000000e+00
    endloop
  endfacet
  facet normal 0.000000e+00 0.000000e+00 -1.000000e+00
    outer loop
      vertex -3.750000e-01 -2.500000e+00 0.000000e+00
      vertex 1.375000e+01 -3.500000e+00 0.000000e+00
      vertex -4.239998e-01 -2.809000e+00 0.000000e+00
    endloop
  endfacet
  facet normal 0.000000e+00 0.000000e+00 -1.000000e+00
    outer loop
      vertex -3.750000e-01 2.500000e+00 0.000000e+00
      vertex 4.633600e+00 2.224800e+00 0.000000e+00
      vertex 4.025200e+00 1.616410e+00 0.000000e+00
    endloop
  endfacet
  facet normal 0.000000e+00 0.000000e+00 -1.000000e+00
    outer loop
      vertex -3.125000e+00 -2.500000e+00 0.000000e+00
      vertex -8.375000e+00 -2.500000e+00 0.000000e+00
      vertex -3.125000e+00 2.500000e+00 0.000000e+00
    endloop
  endfacet
  facet normal 0.000000e+00 0.000000e+00 -1.000000e+00
    outer loop
      vertex -3.750000e-01 2.500000e+00 0.000000e+00
      vertex 1.210100e+01 6.736000e+00 0.000000e+00
      vertex 1.298600e+01 5.851000e+00 0.000000e+00
    endloop
  endfacet
  facet normal 0.000000e+00 0.000000e+00 -1.000000e+00
    outer loop
      vertex -3.125000e+00 -2.500000e+00 0.000000e+00
      vertex -8.566000e+00 -3.088000e+00 0.000000e+00
      vertex -8.424000e+00 -2.809000e+00 0.000000e+00
    endloop
  endfacet
  facet normal 0.000000e+00 0.000000e+00 -1.000000e+00
    outer loop
      vertex -4.239998e-01 2.809000e+00 0.000000e+00
      vertex -5.660000e-01 3.088000e+00 0.000000e+00
      vertex 9.750000e+00 7.500000e+00 0.000000e+00
    endloop
  endfacet
  facet normal 0.000000e+00 0.000000e+00 -1.000000e+00
    outer loop
      vertex -5.660000e-01 3.088000e+00 0.000000e+00
      vertex -7.869997e-01 3.309000e+00 0.000000e+00
      vertex 9.750000e+00 7.500000e+00 0.000000e+00
    endloop
  endfacet
  facet normal 0.000000e+00 0.000000e+00 -1.000000e+00
    outer loop
      vertex 3.634600e+00 -8.498001e-01 0.000000e+00
      vertex -3.750000e-01 -2.500000e+00 0.000000e+00
      vertex 3.500000e+00 0.000000e+00 0.000000e+00
    endloop
  endfacet
  facet normal 0.000000e+00 0.000000e+00 -1.000000e+00
    outer loop
      vertex -2.713000e+00 3.309000e+00 0.000000e+00
      vertex -8.375000e+00 2.500000e+00 0.000000e+00
      vertex -2.434000e+00 3.451000e+00 0.000000e+00
    endloop
  endfacet
  facet normal 0.000000e+00 0.000000e+00 -1.000000e+00
    outer loop
      vertex 7.866400e+00 2.224800e+00 0.000000e+00
      vertex 1.375000e+01 3.500000e+00 0.000000e+00
      vertex 8.474800e+00 1.616410e+00 0.000000e+00
    endloop
  endfacet
  facet normal 0.000000e+00 0.000000e+00 -1.000000e+00
    outer loop
      vertex -1.066000e+00 3.451000e+00 0.000000e+00
      vertex -1.375000e+00 3.500000e+00 0.000000e+00
      vertex 9.750000e+00 7.500000e+00 0.000000e+00
    endloop
  endfacet
  facet normal 0.000000e+00 0.000000e+00 -1.000000e+00
    outer loop
      vertex -2.934000e+00 3.088000e+00 0.000000e+00
      vertex -8.375000e+00 2.500000e+00 0.000000e+00
      vertex -2.713000e+00 3.309000e+00 0.000000e+00
    endloop
  endfacet
  facet normal 0.000000e+00 0.000000e+00 -1.000000e+00
    outer loop
      vertex -1.375000e+00 3.500000e+00 0.000000e+00
      vertex -2.125000e+00 3.500000e+00 0.000000e+00
      vertex 9.750000e+00 7.500000e+00 0.000000e+00
    endloop
  endfacet
  facet normal 0.000000e+00 0.000000e+00 -1.000000e+00
    outer loop
      vertex -2.125000e+00 3.500000e+00 0.000000e+00
      vertex -2.434000e+00 3.451000e+00 0.000000e+00
      vertex 9.750000e+00 7.500000e+00 0.000000e+00
    endloop
  endfacet
  facet normal 0.000000e+00 0.000000e+00 -1.000000e+00
    outer loop
      vertex -3.076000e+00 2.809000e+00 0.000000e+00
      vertex -8.375000e+00 2.500000e+00 0.000000e+00
      vertex -2.934000e+00 3.088000e+00 0.000000e+00
    endloop
  endfacet
  facet normal 0.000000e+00 0.000000e+00 -1.000000e+00
    outer loop
      vertex -3.125000e+00 2.500000e+00 0.000000e+00
      vertex -8.375000e+00 2.500000e+00 0.000000e+00
      vertex -3.076000e+00 2.809000e+00 0.000000e+00
    endloop
  endfacet
  facet normal 0.000000e+00 0.000000e+00 -1.000000e+00
    outer loop
      vertex -2.125000e+00 -3.500000e+00 0.000000e+00
      vertex -9.066000e+00 -3.451000e+00 0.000000e+00
      vertex -2.434000e+00 -3.451000e+00 0.000000e+00
    endloop
  endfacet
  facet normal 0.000000e+00 0.000000e+00 -1.000000e+00
    outer loop
      vertex 7.099800e+00 -2.615400e+00 0.000000e+00
      vertex 1.375000e+01 -3.500000e+00 0.000000e+00
      vertex 6.250000e+00 -2.750000e+00 0.000000e+00
    endloop
  endfacet
  facet normal 0.000000e+00 0.000000e+00 -1.000000e+00
    outer loop
      vertex -3.750000e-01 -2.500000e+00 0.000000e+00
      vertex 3.634600e+00 -8.498001e-01 0.000000e+00
      vertex 4.025200e+00 -1.616410e+00 0.000000e+00
    endloop
  endfacet
  facet normal 0.000000e+00 0.000000e+00 -1.000000e+00
    outer loop
      vertex -3.750000e-01 -2.500000e+00 0.000000e+00
      vertex 4.025200e+00 -1.616410e+00 0.000000e+00
      vertex 4.633600e+00 -2.224800e+00 0.000000e+00
    endloop
  endfacet
  facet normal 0.000000e+00 0.000000e+00 -1.000000e+00
    outer loop
      vertex -3.750000e-01 -2.500000e+00 0.000000e+00
      vertex 4.633600e+00 -2.224800e+00 0.000000e+00
      vertex 5.400200e+00 -2.615400e+00 0.000000e+00
    endloop
  endfacet
  facet normal 0.000000e+00 0.000000e+00 -1.000000e+00
    outer loop
      vertex -3.750000e-01 -2.500000e+00 0.000000e+00
      vertex 5.400200e+00 -2.615400e+00 0.000000e+00
      vertex 6.250000e+00 -2.750000e+00 0.000000e+00
    endloop
  endfacet
  facet normal 0.000000e+00 0.000000e+00 -1.000000e+00
    outer loop
      vertex -3.750000e-01 -2.500000e+00 0.000000e+00
      vertex 6.250000e+00 -2.750000e+00 0.000000e+00
      vertex 1.375000e+01 -3.500000e+00 0.000000e+00
    endloop
  endfacet
  facet normal 0.000000e+00 0.000000e+00 -1.000000e+00
    outer loop
      vertex 7.866400e+00 -2.224800e+00 0.000000e+00
      vertex 1.375000e+01 -3.500000e+00 0.000000e+00
      vertex 7.099800e+00 -2.615400e+00 0.000000e+00
    endloop
  endfacet
  facet normal 0.000000e+00 0.000000e+00 -1.000000e+00
    outer loop
      vertex 8.474800e+00 -1.616410e+00 0.000000e+00
      vertex 1.375000e+01 -3.500000e+00 0.000000e+00
      vertex 7.866400e+00 -2.224800e+00 0.000000e+00
    endloop
  endfacet
  facet normal 0.000000e+00 0.000000e+00 -1.000000e+00
    outer loop
      vertex 8.865400e+00 -8.498001e-01 0.000000e+00
      vertex 1.375000e+01 3.500000e+00 0.000000e+00
      vertex 8.474800e+00 -1.616410e+00 0.000000e+00
    endloop
  endfacet
  facet normal 0.000000e+00 0.000000e+00 -1.000000e+00
    outer loop
      vertex 8.474800e+00 1.616410e+00 0.000000e+00
      vertex 1.375000e+01 3.500000e+00 0.000000e+00
      vertex 8.865400e+00 8.498001e-01 0.000000e+00
    endloop
  endfacet
  facet normal 0.000000e+00 0.000000e+00 -1.000000e+00
    outer loop
      vertex 9.000000e+00 0.000000e+00 0.000000e+00
      vertex 1.375000e+01 3.500000e+00 0.000000e+00
      vertex 8.865400e+00 -8.498001e-01 0.000000e+00
    endloop
  endfacet
  facet normal 0.000000e+00 0.000000e+00 -1.000000e+00
    outer loop
      vertex 8.865400e+00 8.498001e-01 0.000000e+00
      vertex 1.375000e+01 3.500000e+00 0.000000e+00
      vertex 9.000000e+00 0.000000e+00 0.000000e+00
    endloop
  endfacet
  facet normal 0.000000e+00 0.000000e+00 -1.000000e+00
    outer loop
      vertex 6.250000e+00 2.750000e+00 0.000000e+00
      vertex 1.298600e+01 5.851000e+00 0.000000e+00
      vertex 7.099800e+00 2.615400e+00 0.000000e+00
    endloop
  endfacet
  facet normal 0.000000e+00 0.000000e+00 -1.000000e+00
    outer loop
      vertex -8.375000e+00 2.500000e+00 0.000000e+00
      vertex -3.125000e+00 2.500000e+00 0.000000e+00
      vertex -8.375000e+00 -2.500000e+00 0.000000e+00
    endloop
  endfacet
  facet normal 0.000000e+00 0.000000e+00 -1.000000e+00
    outer loop
      vertex 5.400200e+00 2.615400e+00 0.000000e+00
      vertex 1.298600e+01 5.851000e+00 0.000000e+00
      vertex 6.250000e+00 2.750000e+00 0.000000e+00
    endloop
  endfacet
  facet normal 0.000000e+00 0.000000e+00 -1.000000e+00
    outer loop
      vertex -3.750000e-01 2.500000e+00 0.000000e+00
      vertex 1.098600e+01 7.304000e+00 0.000000e+00
      vertex 1.210100e+01 6.736000e+00 0.000000e+00
    endloop
  endfacet
  facet normal 0.000000e+00 0.000000e+00 -1.000000e+00
    outer loop
      vertex -3.750000e-01 2.500000e+00 0.000000e+00
      vertex 3.500000e+00 0.000000e+00 0.000000e+00
      vertex -3.750000e-01 -2.500000e+00 0.000000e+00
    endloop
  endfacet
  facet normal 0.000000e+00 0.000000e+00 -1.000000e+00
    outer loop
      vertex -1.071300e+01 -3.309000e+00 0.000000e+00
      vertex -1.355400e+01 -4.736000e+00 0.000000e+00
      vertex -1.093400e+01 -3.088000e+00 0.000000e+00
    endloop
  endfacet
  facet normal 0.000000e+00 0.000000e+00 -1.000000e+00
    outer loop
      vertex -3.750000e-01 2.500000e+00 0.000000e+00
      vertex 5.400200e+00 2.615400e+00 0.000000e+00
      vertex 4.633600e+00 2.224800e+00 0.000000e+00
    endloop
  endfacet
  facet normal 0.000000e+00 0.000000e+00 -1.000000e+00
    outer loop
      vertex 7.099800e+00 2.615400e+00 0.000000e+00
      vertex 1.355400e+01 4.736000e+00 0.000000e+00
      vertex 7.866400e+00 2.224800e+00 0.000000e+00
    endloop
  endfacet
  facet normal -1.000000e+00 0.000000e+00 0.000000e+00
    outer loop
      vertex -1.375000e+01 -3.500000e+00 0.000000e+00
      vertex -1.375000e+01 -3.500000e+00 1.500000e+00
      vertex -1.375000e+01 3.500000e+00 0.000000e+00
    endloop
  endfacet
  facet normal -1.000000e+00 0.000000e+00 0.000000e+00
    outer loop
      vertex -1.375000e+01 3.500000e+00 0.000000e+00
      vertex -1.375000e+01 -3.500000e+00 1.500000e+00
      vertex -1.375000e+01 3.500000e+00 1.500000e+00
    endloop
  endfacet
  facet normal 0.000000e+00 0.000000e+00 1.000000e+00
    outer loop
      vertex -1.375000e+01 3.500000e+00 1.500000e+00
      vertex -1.375000e+01 -3.500000e+00 1.500000e+00
      vertex -1.355400e+01 -4.736000e+00 1.500000e+00
    endloop
  endfacet
  facet normal 0.000000e+00 0.000000e+00 1.000000e+00
    outer loop
      vertex -1.210100e+01 -6.736000e+00 1.500000e+00
      vertex -1.375000e+01 3.500000e+00 1.500000e+00
      vertex -1.298600e+01 -5.851000e+00 1.500000e+00
    endloop
  endfacet
  facet normal 0.000000e+00 0.000000e+00 1.000000e+00
    outer loop
      vertex -1.298600e+01 -5.851000e+00 1.500000e+00
      vertex -1.375000e+01 3.500000e+00 1.500000e+00
      vertex -1.355400e+01 -4.736000e+00 1.500000e+00
    endloop
  endfacet
  facet normal 0.000000e+00 0.000000e+00 1.000000e+00
    outer loop
      vertex -1.098600e+01 -7.304000e+00 1.500000e+00
      vertex -1.375000e+01 3.500000e+00 1.500000e+00
      vertex -1.210100e+01 -6.736000e+00 1.500000e+00
    endloop
  endfacet
  facet normal 0.000000e+00 0.000000e+00 1.000000e+00
    outer loop
      vertex -9.750000e+00 -7.500000e+00 1.500000e+00
      vertex -1.375000e+01 3.500000e+00 1.500000e+00
      vertex -1.098600e+01 -7.304000e+00 1.500000e+00
    endloop
  endfacet
  facet normal 0.000000e+00 0.000000e+00 1.000000e+00
    outer loop
      vertex -1.107600e+01 -2.809000e+00 1.500000e+00
      vertex -1.375000e+01 3.500000e+00 1.500000e+00
      vertex -9.750000e+00 -7.500000e+00 1.500000e+00
    endloop
  endfacet
  facet normal 0.000000e+00 0.000000e+00 1.000000e+00
    outer loop
      vertex -7.869997e-01 -3.309000e+00 1.500000e+00
      vertex -1.066000e+00 -3.451000e+00 1.500000e+00
      vertex 9.750000e+00 -7.500000e+00 1.500000e+00
    endloop
  endfacet
  facet normal 0.000000e+00 0.000000e+00 1.000000e+00
    outer loop
      vertex -1.375000e+00 3.500000e+00 1.500000e+00
      vertex -1.066000e+00 3.451000e+00 1.500000e+00
      vertex 1.375000e+01 3.500000e+00 1.500000e+00
    endloop
  endfacet
  facet normal 0.000000e+00 0.000000e+00 1.000000e+00
    outer loop
      vertex -1.012500e+01 3.500000e+00 1.500000e+00
      vertex -1.375000e+01 3.500000e+00 1.500000e+00
      vertex -1.043400e+01 3.451000e+00 1.500000e+00
    endloop
  endfacet
  facet normal 0.000000e+00 0.000000e+00 1.000000e+00
    outer loop
      vertex 1.298600e+01 5.851000e+00 1.500000e+00
      vertex -1.375000e+01 3.500000e+00 1.500000e+00
      vertex 1.355400e+01 4.736000e+00 1.500000e+00
    endloop
  endfacet
  facet normal 0.000000e+00 0.000000e+00 1.000000e+00
    outer loop
      vertex 1.210100e+01 6.736000e+00 1.500000e+00
      vertex -1.375000e+01 3.500000e+00 1.500000e+00
      vertex 1.298600e+01 5.851000e+00 1.500000e+00
    endloop
  endfacet
  facet normal 0.000000e+00 0.000000e+00 1.000000e+00
    outer loop
      vertex 1.098600e+01 7.304000e+00 1.500000e+00
      vertex -1.375000e+01 3.500000e+00 1.500000e+00
      vertex 1.210100e+01 6.736000e+00 1.500000e+00
    endloop
  endfacet
  facet normal 0.000000e+00 0.000000e+00 1.000000e+00
    outer loop
      vertex 9.750000e+00 7.500000e+00 1.500000e+00
      vertex -1.375000e+01 3.500000e+00 1.500000e+00
      vertex 1.098600e+01 7.304000e+00 1.500000e+00
    endloop
  endfacet
  facet normal 0.000000e+00 0.000000e+00 1.000000e+00
    outer loop
      vertex -9.750000e+00 7.500000e+00 1.500000e+00
      vertex -1.375000e+01 3.500000e+00 1.500000e+00
      vertex 9.750000e+00 7.500000e+00 1.500000e+00
    endloop
  endfacet
  facet normal 0.000000e+00 0.000000e+00 1.000000e+00
    outer loop
      vertex -1.098600e+01 7.304000e+00 1.500000e+00
      vertex -1.375000e+01 3.500000e+00 1.500000e+00
      vertex -9.750000e+00 7.500000e+00 1.500000e+00
    endloop
  endfacet
  facet normal 0.000000e+00 0.000000e+00 1.000000e+00
    outer loop
      vertex -1.210100e+01 6.736000e+00 1.500000e+00
      vertex -1.375000e+01 3.500000e+00 1.500000e+00
      vertex -1.098600e+01 7.304000e+00 1.500000e+00
    endloop
  endfacet
  facet normal 0.000000e+00 0.000000e+00 1.000000e+00
    outer loop
      vertex -1.298600e+01 5.851000e+00 1.500000e+00
      vertex -1.375000e+01 3.500000e+00 1.500000e+00
      vertex -1.210100e+01 6.736000e+00 1.500000e+00
    endloop
  endfacet
  facet normal 0.000000e+00 0.000000e+00 1.000000e+00
    outer loop
      vertex -1.355400e+01 4.736000e+00 1.500000e+00
      vertex -1.375000e+01 3.500000e+00 1.500000e+00
      vertex -1.298600e+01 5.851000e+00 1.500000e+00
    endloop
  endfacet
  facet normal 0.000000e+00 0.000000e+00 1.000000e+00
    outer loop
      vertex 4.633600e+00 -2.224800e+00 1.500000e+00
      vertex 1.210100e+01 -6.736000e+00 1.500000e+00
      vertex 5.400200e+00 -2.615400e+00 1.500000e+00
    endloop
  endfacet
  facet normal 0.000000e+00 0.000000e+00 1.000000e+00
    outer loop
      vertex -3.750000e-01 2.500000e+00 1.500000e+00
      vertex 4.633600e+00 -2.224800e+00 1.500000e+00
      vertex 4.025200e+00 -1.616410e+00 1.500000e+00
    endloop
  endfacet
  facet normal 0.000000e+00 0.000000e+00 1.000000e+00
    outer loop
      vertex -3.125000e+00 -2.500000e+00 1.500000e+00
      vertex -8.424000e+00 2.809000e+00 1.500000e+00
      vertex -8.375000e+00 2.500000e+00 1.500000e+00
    endloop
  endfacet
  facet normal 0.000000e+00 0.000000e+00 1.000000e+00
    outer loop
      vertex -1.071300e+01 3.309000e+00 1.500000e+00
      vertex -1.375000e+01 3.500000e+00 1.500000e+00
      vertex -1.093400e+01 3.088000e+00 1.500000e+00
    endloop
  endfacet
  facet normal 0.000000e+00 0.000000e+00 1.000000e+00
    outer loop
      vertex -1.043400e+01 3.451000e+00 1.500000e+00
      vertex -1.375000e+01 3.500000e+00 1.500000e+00
      vertex -1.071300e+01 3.309000e+00 1.500000e+00
    endloop
  endfacet
  facet normal 0.000000e+00 0.000000e+00 1.000000e+00
    outer loop
      vertex 1.355400e+01 4.736000e+00 1.500000e+00
      vertex -1.375000e+01 3.500000e+00 1.500000e+00
      vertex -1.012500e+01 3.500000e+00 1.500000e+00
    endloop
  endfacet
  facet normal 0.000000e+00 0.000000e+00 1.000000e+00
    outer loop
      vertex -9.066000e+00 3.451000e+00 1.500000e+00
      vertex -8.787000e+00 3.309000e+00 1.500000e+00
      vertex -2.434000e+00 3.451000e+00 1.500000e+00
    endloop
  endfacet
  facet normal 0.000000e+00 0.000000e+00 1.000000e+00
    outer loop
      vertex 1.355400e+01 4.736000e+00 1.500000e+00
      vertex -1.012500e+01 3.500000e+00 1.500000e+00
      vertex -9.375000e+00 3.500000e+00 1.500000e+00
    endloop
  endfacet
  facet normal 0.000000e+00 0.000000e+00 1.000000e+00
    outer loop
      vertex -8.787000e+00 3.309000e+00 1.500000e+00
      vertex -8.566000e+00 3.088000e+00 1.500000e+00
      vertex -2.713000e+00 3.309000e+00 1.500000e+00
    endloop
  endfacet
  facet normal 0.000000e+00 0.000000e+00 1.000000e+00
    outer loop
      vertex -3.750000e-01 2.500000e+00 1.500000e+00
      vertex 4.025200e+00 -1.616410e+00 1.500000e+00
      vertex 3.634600e+00 -8.498001e-01 1.500000e+00
    endloop
  endfacet
  facet normal 0.000000e+00 0.000000e+00 1.000000e+00
    outer loop
      vertex -2.934000e+00 3.088000e+00 1.500000e+00
      vertex -2.713000e+00 3.309000e+00 1.500000e+00
      vertex -8.566000e+00 3.088000e+00 1.500000e+00
    endloop
  endfacet
  facet normal 0.000000e+00 0.000000e+00 1.000000e+00
    outer loop
      vertex -3.750000e-01 2.500000e+00 1.500000e+00
      vertex 3.634600e+00 -8.498001e-01 1.500000e+00
      vertex 3.500000e+00 0.000000e+00 1.500000e+00
    endloop
  endfacet
  facet normal 0.000000e+00 0.000000e+00 1.000000e+00
    outer loop
      vertex 4.633600e+00 -2.224800e+00 1.500000e+00
      vertex -3.750000e-01 -2.500000e+00 1.500000e+00
      vertex 1.098600e+01 -7.304000e+00 1.500000e+00
    endloop
  endfacet
  facet normal 0.000000e+00 0.000000e+00 1.000000e+00
    outer loop
      vertex 9.750000e+00 -7.500000e+00 1.500000e+00
      vertex -8.375000e+00 -2.500000e+00 1.500000e+00
      vertex -8.424000e+00 -2.809000e+00 1.500000e+00
    endloop
  endfacet
  facet normal 0.000000e+00 0.000000e+00 1.000000e+00
    outer loop
      vertex -1.093400e+01 -3.088000e+00 1.500000e+00
      vertex -1.107600e+01 -2.809000e+00 1.500000e+00
      vertex -9.750000e+00 -7.500000e+00 1.500000e+00
    endloop
  endfacet
  facet normal 0.000000e+00 0.000000e+00 1.000000e+00
    outer loop
      vertex 9.750000e+00 -7.500000e+00 1.500000e+00
      vertex -8.424000e+00 -2.809000e+00 1.500000e+00
      vertex -8.566000e+00 -3.088000e+00 1.500000e+00
    endloop
  endfacet
  facet normal 0.000000e+00 0.000000e+00 1.000000e+00
    outer loop
      vertex 9.750000e+00 -7.500000e+00 1.500000e+00
      vertex -8.787000e+00 -3.309000e+00 1.500000e+00
      vertex -9.750000e+00 -7.500000e+00 1.500000e+00
    endloop
  endfacet
  facet normal 0.000000e+00 0.000000e+00 1.000000e+00
    outer loop
      vertex -8.787000e+00 -3.309000e+00 1.500000e+00
      vertex -9.066000e+00 -3.451000e+00 1.500000e+00
      vertex -9.750000e+00 -7.500000e+00 1.500000e+00
    endloop
  endfacet
  facet normal 0.000000e+00 0.000000e+00 1.000000e+00
    outer loop
      vertex -9.066000e+00 -3.451000e+00 1.500000e+00
      vertex -9.375000e+00 -3.500000e+00 1.500000e+00
      vertex -9.750000e+00 -7.500000e+00 1.500000e+00
    endloop
  endfacet
  facet normal 0.000000e+00 0.000000e+00 1.000000e+00
    outer loop
      vertex -9.375000e+00 -3.500000e+00 1.500000e+00
      vertex -1.012500e+01 -3.500000e+00 1.500000e+00
      vertex -9.750000e+00 -7.500000e+00 1.500000e+00
    endloop
  endfacet
  facet normal 0.000000e+00 0.000000e+00 1.000000e+00
    outer loop
      vertex -1.012500e+01 -3.500000e+00 1.500000e+00
      vertex -1.043400e+01 -3.451000e+00 1.500000e+00
      vertex -9.750000e+00 -7.500000e+00 1.500000e+00
    endloop
  endfacet
  facet normal 0.000000e+00 0.000000e+00 1.000000e+00
    outer loop
      vertex -1.043400e+01 -3.451000e+00 1.500000e+00
      vertex -1.071300e+01 -3.309000e+00 1.500000e+00
      vertex -9.750000e+00 -7.500000e+00 1.500000e+00
    endloop
  endfacet
  facet normal 0.000000e+00 0.000000e+00 1.000000e+00
    outer loop
      vertex -1.071300e+01 -3.309000e+00 1.500000e+00
      vertex -1.093400e+01 -3.088000e+00 1.500000e+00
      vertex -9.750000e+00 -7.500000e+00 1.500000e+00
    endloop
  endfacet
  facet normal 0.000000e+00 0.000000e+00 1.000000e+00
    outer loop
      vertex -1.112500e+01 -2.500000e+00 1.500000e+00
      vertex -1.375000e+01 3.500000e+00 1.500000e+00
      vertex -1.107600e+01 -2.809000e+00 1.500000e+00
    endloop
  endfacet
  facet normal 0.000000e+00 0.000000e+00 1.000000e+00
    outer loop
      vertex -3.076000e+00 -2.809000e+00 1.500000e+00
      vertex -3.125000e+00 -2.500000e+00 1.500000e+00
      vertex -8.375000e+00 -2.500000e+00 1.500000e+00
    endloop
  endfacet
  facet normal 0.000000e+00 0.000000e+00 1.000000e+00
    outer loop
      vertex -1.112500e+01 2.500000e+00 1.500000e+00
      vertex -1.107600e+01 2.809000e+00 1.500000e+00
      vertex -1.375000e+01 3.500000e+00 1.500000e+00
    endloop
  endfacet
  facet normal 0.000000e+00 0.000000e+00 1.000000e+00
    outer loop
      vertex -3.076000e+00 2.809000e+00 1.500000e+00
      vertex -8.566000e+00 3.088000e+00 1.500000e+00
      vertex -3.125000e+00 2.500000e+00 1.500000e+00
    endloop
  endfacet
  facet normal 0.000000e+00 0.000000e+00 1.000000e+00
    outer loop
      vertex -2.934000e+00 3.088000e+00 1.500000e+00
      vertex -8.566000e+00 3.088000e+00 1.500000e+00
      vertex -3.076000e+00 2.809000e+00 1.500000e+00
    endloop
  endfacet
  facet normal 0.000000e+00 0.000000e+00 1.000000e+00
    outer loop
      vertex -2.713000e+00 3.309000e+00 1.500000e+00
      vertex -2.434000e+00 3.451000e+00 1.500000e+00
      vertex -8.787000e+00 3.309000e+00 1.500000e+00
    endloop
  endfacet
  facet normal 0.000000e+00 0.000000e+00 1.000000e+00
    outer loop
      vertex -2.434000e+00 3.451000e+00 1.500000e+00
      vertex -2.125000e+00 3.500000e+00 1.500000e+00
      vertex -9.066000e+00 3.451000e+00 1.500000e+00
    endloop
  endfacet
  facet normal 0.000000e+00 0.000000e+00 1.000000e+00
    outer loop
      vertex -7.869997e-01 3.309000e+00 1.500000e+00
      vertex -5.660000e-01 3.088000e+00 1.500000e+00
      vertex 1.375000e+01 3.500000e+00 1.500000e+00
    endloop
  endfacet
  facet normal 0.000000e+00 0.000000e+00 1.000000e+00
    outer loop
      vertex 7.099800e+00 2.615400e+00 1.500000e+00
      vertex 7.866400e+00 2.224800e+00 1.500000e+00
      vertex 1.375000e+01 3.500000e+00 1.500000e+00
    endloop
  endfacet
  facet normal 0.000000e+00 0.000000e+00 1.000000e+00
    outer loop
      vertex -1.066000e+00 3.451000e+00 1.500000e+00
      vertex -7.869997e-01 3.309000e+00 1.500000e+00
      vertex 1.375000e+01 3.500000e+00 1.500000e+00
    endloop
  endfacet
  facet normal 0.000000e+00 0.000000e+00 1.000000e+00
    outer loop
      vertex 1.355400e+01 4.736000e+00 1.500000e+00
      vertex -9.375000e+00 3.500000e+00 1.500000e+00
      vertex -2.125000e+00 3.500000e+00 1.500000e+00
    endloop
  endfacet
  facet normal 0.000000e+00 0.000000e+00 1.000000e+00
    outer loop
      vertex 1.355400e+01 4.736000e+00 1.500000e+00
      vertex -1.375000e+00 3.500000e+00 1.500000e+00
      vertex 1.375000e+01 3.500000e+00 1.500000e+00
    endloop
  endfacet
  facet normal 0.000000e+00 0.000000e+00 1.000000e+00
    outer loop
      vertex 1.355400e+01 4.736000e+00 1.500000e+00
      vertex -2.125000e+00 3.500000e+00 1.500000e+00
      vertex -1.375000e+00 3.500000e+00 1.500000e+00
    endloop
  endfacet
  facet normal 0.000000e+00 0.000000e+00 1.000000e+00
    outer loop
      vertex -4.239998e-01 2.809000e+00 1.500000e+00
      vertex -3.750000e-01 2.500000e+00 1.500000e+00
      vertex 1.375000e+01 3.500000e+00 1.500000e+00
    endloop
  endfacet
  facet normal 0.000000e+00 0.000000e+00 1.000000e+00
    outer loop
      vertex 7.099800e+00 -2.615400e+00 1.500000e+00
      vertex 6.250000e+00 -2.750000e+00 1.500000e+00
      vertex 1.355400e+01 -4.736000e+00 1.500000e+00
    endloop
  endfacet
  facet normal 0.000000e+00 0.000000e+00 1.000000e+00
    outer loop
      vertex 1.098600e+01 -7.304000e+00 1.500000e+00
      vertex -3.750000e-01 -2.500000e+00 1.500000e+00
      vertex 9.750000e+00 -7.500000e+00 1.500000e+00
    endloop
  endfacet
  facet normal 0.000000e+00 0.000000e+00 1.000000e+00
    outer loop
      vertex 4.633600e+00 -2.224800e+00 1.500000e+00
      vertex 1.098600e+01 -7.304000e+00 1.500000e+00
      vertex 1.210100e+01 -6.736000e+00 1.500000e+00
    endloop
  endfacet
  facet normal 0.000000e+00 0.000000e+00 1.000000e+00
    outer loop
      vertex 9.750000e+00 -7.500000e+00 1.500000e+00
      vertex -4.239998e-01 -2.809000e+00 1.500000e+00
      vertex -5.660000e-01 -3.088000e+00 1.500000e+00
    endloop
  endfacet
  facet normal 0.000000e+00 0.000000e+00 1.000000e+00
    outer loop
      vertex -2.434000e+00 -3.451000e+00 1.500000e+00
      vertex -2.713000e+00 -3.309000e+00 1.500000e+00
      vertex -8.375000e+00 -2.500000e+00 1.500000e+00
    endloop
  endfacet
  facet normal 0.000000e+00 0.000000e+00 1.000000e+00
    outer loop
      vertex 9.750000e+00 -7.500000e+00 1.500000e+00
      vertex -5.660000e-01 -3.088000e+00 1.500000e+00
      vertex -7.869997e-01 -3.309000e+00 1.500000e+00
    endloop
  endfacet
  facet normal 0.000000e+00 0.000000e+00 1.000000e+00
    outer loop
      vertex 3.500000e+00 0.000000e+00 1.500000e+00
      vertex 3.634600e+00 8.498001e-01 1.500000e+00
      vertex -3.750000e-01 2.500000e+00 1.500000e+00
    endloop
  endfacet
  facet normal 0.000000e+00 0.000000e+00 1.000000e+00
    outer loop
      vertex 9.750000e+00 -7.500000e+00 1.500000e+00
      vertex -1.066000e+00 -3.451000e+00 1.500000e+00
      vertex -1.375000e+00 -3.500000e+00 1.500000e+00
    endloop
  endfacet
  facet normal 0.000000e+00 0.000000e+00 1.000000e+00
    outer loop
      vertex 9.750000e+00 -7.500000e+00 1.500000e+00
      vertex -1.375000e+00 -3.500000e+00 1.500000e+00
      vertex -2.125000e+00 -3.500000e+00 1.500000e+00
    endloop
  endfacet
  facet normal 0.000000e+00 0.000000e+00 1.000000e+00
    outer loop
      vertex 9.750000e+00 -7.500000e+00 1.500000e+00
      vertex -2.434000e+00 -3.451000e+00 1.500000e+00
      vertex -8.375000e+00 -2.500000e+00 1.500000e+00
    endloop
  endfacet
  facet normal 0.000000e+00 0.000000e+00 1.000000e+00
    outer loop
      vertex 9.750000e+00 -7.500000e+00 1.500000e+00
      vertex -2.125000e+00 -3.500000e+00 1.500000e+00
      vertex -2.434000e+00 -3.451000e+00 1.500000e+00
    endloop
  endfacet
  facet normal 0.000000e+00 0.000000e+00 1.000000e+00
    outer loop
      vertex -2.934000e+00 -3.088000e+00 1.500000e+00
      vertex -3.076000e+00 -2.809000e+00 1.500000e+00
      vertex -8.375000e+00 -2.500000e+00 1.500000e+00
    endloop
  endfacet
  facet normal 0.000000e+00 0.000000e+00 1.000000e+00
    outer loop
      vertex -5.660000e-01 3.088000e+00 1.500000e+00
      vertex -4.239998e-01 2.809000e+00 1.500000e+00
      vertex 1.375000e+01 3.500000e+00 1.500000e+00
    endloop
  endfacet
  facet normal 0.000000e+00 0.000000e+00 1.000000e+00
    outer loop
      vertex 4.025200e+00 1.616410e+00 1.500000e+00
      vertex -3.750000e-01 2.500000e+00 1.500000e+00
      vertex 3.634600e+00 8.498001e-01 1.500000e+00
    endloop
  endfacet
  facet normal 0.000000e+00 0.000000e+00 1.000000e+00
    outer loop
      vertex 4.633600e+00 2.224800e+00 1.500000e+00
      vertex -3.750000e-01 2.500000e+00 1.500000e+00
      vertex 4.025200e+00 1.616410e+00 1.500000e+00
    endloop
  endfacet
  facet normal 0.000000e+00 0.000000e+00 1.000000e+00
    outer loop
      vertex 7.866400e+00 2.224800e+00 1.500000e+00
      vertex 8.474800e+00 1.616410e+00 1.500000e+00
      vertex 1.375000e+01 3.500000e+00 1.500000e+00
    endloop
  endfacet
  facet normal 0.000000e+00 0.000000e+00 1.000000e+00
    outer loop
      vertex 5.400200e+00 2.615400e+00 1.500000e+00
      vertex -3.750000e-01 2.500000e+00 1.500000e+00
      vertex 4.633600e+00 2.224800e+00 1.500000e+00
    endloop
  endfacet
  facet normal 0.000000e+00 0.000000e+00 1.000000e+00
    outer loop
      vertex 6.250000e+00 2.750000e+00 1.500000e+00
      vertex -3.750000e-01 2.500000e+00 1.500000e+00
      vertex 5.400200e+00 2.615400e+00 1.500000e+00
    endloop
  endfacet
  facet normal 0.000000e+00 0.000000e+00 1.000000e+00
    outer loop
      vertex 1.375000e+01 3.500000e+00 1.500000e+00
      vertex -3.750000e-01 2.500000e+00 1.500000e+00
      vertex 6.250000e+00 2.750000e+00 1.500000e+00
    endloop
  endfacet
  facet normal 0.000000e+00 0.000000e+00 1.000000e+00
    outer loop
      vertex 8.474800e+00 -1.616410e+00 1.500000e+00
      vertex 7.866400e+00 -2.224800e+00 1.500000e+00
      vertex 1.375000e+01 -3.500000e+00 1.500000e+00
    endloop
  endfacet
  facet normal 0.000000e+00 0.000000e+00 1.000000e+00
    outer loop
      vertex 8.865400e+00 -8.498001e-01 1.500000e+00
      vertex 8.474800e+00 -1.616410e+00 1.500000e+00
      vertex 1.375000e+01 -3.500000e+00 1.500000e+00
    endloop
  endfacet
  facet normal 0.000000e+00 0.000000e+00 1.000000e+00
    outer loop
      vertex 1.375000e+01 3.500000e+00 1.500000e+00
      vertex 8.474800e+00 1.616410e+00 1.500000e+00
      vertex 1.375000e+01 -3.500000e+00 1.500000e+00
    endloop
  endfacet
  facet normal 0.000000e+00 0.000000e+00 1.000000e+00
    outer loop
      vertex 8.474800e+00 1.616410e+00 1.500000e+00
      vertex 8.865400e+00 8.498001e-01 1.500000e+00
      vertex 1.375000e+01 -3.500000e+00 1.500000e+00
    endloop
  endfacet
  facet normal 0.000000e+00 0.000000e+00 1.000000e+00
    outer loop
      vertex 8.865400e+00 8.498001e-01 1.500000e+00
      vertex 9.000000e+00 0.000000e+00 1.500000e+00
      vertex 1.375000e+01 -3.500000e+00 1.500000e+00
    endloop
  endfacet
  facet normal 0.000000e+00 0.000000e+00 1.000000e+00
    outer loop
      vertex 9.000000e+00 0.000000e+00 1.500000e+00
      vertex 8.865400e+00 -8.498001e-01 1.500000e+00
      vertex 1.375000e+01 -3.500000e+00 1.500000e+00
    endloop
  endfacet
  facet normal 0.000000e+00 0.000000e+00 1.000000e+00
    outer loop
      vertex 6.250000e+00 2.750000e+00 1.500000e+00
      vertex 7.099800e+00 2.615400e+00 1.500000e+00
      vertex 1.375000e+01 3.500000e+00 1.500000e+00
    endloop
  endfacet
  facet normal 0.000000e+00 0.000000e+00 1.000000e+00
    outer loop
      vertex 1.375000e+01 -3.500000e+00 1.500000e+00
      vertex 7.866400e+00 -2.224800e+00 1.500000e+00
      vertex 1.355400e+01 -4.736000e+00 1.500000e+00
    endloop
  endfacet
  facet normal 0.000000e+00 0.000000e+00 1.000000e+00
    outer loop
      vertex 7.866400e+00 -2.224800e+00 1.500000e+00
      vertex 7.099800e+00 -2.615400e+00 1.500000e+00
      vertex 1.355400e+01 -4.736000e+00 1.500000e+00
    endloop
  endfacet
  facet normal 0.000000e+00 0.000000e+00 1.000000e+00
    outer loop
      vertex -3.125000e+00 -2.500000e+00 1.500000e+00
      vertex -8.566000e+00 3.088000e+00 1.500000e+00
      vertex -8.424000e+00 2.809000e+00 1.500000e+00
    endloop
  endfacet
  facet normal 0.000000e+00 0.000000e+00 1.000000e+00
    outer loop
      vertex 1.355400e+01 -4.736000e+00 1.500000e+00
      vertex 6.250000e+00 -2.750000e+00 1.500000e+00
      vertex 1.298600e+01 -5.851000e+00 1.500000e+00
    endloop
  endfacet
  facet normal 0.000000e+00 0.000000e+00 1.000000e+00
    outer loop
      vertex -1.107600e+01 2.809000e+00 1.500000e+00
      vertex -1.093400e+01 3.088000e+00 1.500000e+00
      vertex -1.375000e+01 3.500000e+00 1.500000e+00
    endloop
  endfacet
  facet normal 0.000000e+00 0.000000e+00 1.000000e+00
    outer loop
      vertex 6.250000e+00 -2.750000e+00 1.500000e+00
      vertex 5.400200e+00 -2.615400e+00 1.500000e+00
      vertex 1.298600e+01 -5.851000e+00 1.500000e+00
    endloop
  endfacet
  facet normal 0.000000e+00 0.000000e+00 1.000000e+00
    outer loop
      vertex -9.375000e+00 3.500000e+00 1.500000e+00
      vertex -9.066000e+00 3.451000e+00 1.500000e+00
      vertex -2.125000e+00 3.500000e+00 1.500000e+00
    endloop
  endfacet
  facet normal 0.000000e+00 0.000000e+00 1.000000e+00
    outer loop
      vertex -3.125000e+00 -2.500000e+00 1.500000e+00
      vertex -3.125000e+00 2.500000e+00 1.500000e+00
      vertex -8.566000e+00 3.088000e+00 1.500000e+00
    endloop
  endfacet
  facet normal 0.000000e+00 0.000000e+00 1.000000e+00
    outer loop
      vertex 5.400200e+00 -2.615400e+00 1.500000e+00
      vertex 1.210100e+01 -6.736000e+00 1.500000e+00
      vertex 1.298600e+01 -5.851000e+00 1.500000e+00
    endloop
  endfacet
  facet normal 0.000000e+00 0.000000e+00 1.000000e+00
    outer loop
      vertex -2.713000e+00 -3.309000e+00 1.500000e+00
      vertex -2.934000e+00 -3.088000e+00 1.500000e+00
      vertex -8.375000e+00 -2.500000e+00 1.500000e+00
    endloop
  endfacet
  facet normal 0.000000e+00 0.000000e+00 1.000000e+00
    outer loop
      vertex -8.566000e+00 -3.088000e+00 1.500000e+00
      vertex -8.787000e+00 -3.309000e+00 1.500000e+00
      vertex 9.750000e+00 -7.500000e+00 1.500000e+00
    endloop
  endfacet
  facet normal 0.000000e+00 0.000000e+00 1.000000e+00
    outer loop
      vertex -1.112500e+01 -2.500000e+00 1.500000e+00
      vertex -1.112500e+01 2.500000e+00 1.500000e+00
      vertex -1.375000e+01 3.500000e+00 1.500000e+00
    endloop
  endfacet
  facet normal 0.000000e+00 0.000000e+00 1.000000e+00
    outer loop
      vertex -3.750000e-01 2.500000e+00 1.500000e+00
      vertex -3.750000e-01 -2.500000e+00 1.500000e+00
      vertex 4.633600e+00 -2.224800e+00 1.500000e+00
    endloop
  endfacet
  facet normal 0.000000e+00 0.000000e+00 1.000000e+00
    outer loop
      vertex -3.750000e-01 -2.500000e+00 1.500000e+00
      vertex -4.239998e-01 -2.809000e+00 1.500000e+00
      vertex 9.750000e+00 -7.500000e+00 1.500000e+00
    endloop
  endfacet
  facet normal 0.000000e+00 0.000000e+00 1.000000e+00
    outer loop
      vertex -8.375000e+00 2.500000e+00 1.500000e+00
      vertex -8.375000e+00 -2.500000e+00 1.500000e+00
      vertex -3.125000e+00 -2.500000e+00 1.500000e+00
    endloop
  endfacet
  facet normal -8.910456e-01 -4.539138e-01 0.000000e+00
    outer loop
      vertex -1.355400e+01 -4.736000e+00 0.000000e+00
      vertex -1.298600e+01 -5.851000e+00 0.000000e+00
      vertex -1.355400e+01 -4.736000e+00 1.500000e+00
    endloop
  endfacet
  facet normal -8.910456e-01 -4.539138e-01 0.000000e+00
    outer loop
      vertex -1.355400e+01 -4.736000e+00 1.500000e+00
      vertex -1.298600e+01 -5.851000e+00 0.000000e+00
      vertex -1.298600e+01 -5.851000e+00 1.500000e+00
    endloop
  endfacet
  facet normal -7.071068e-01 -7.071068e-01 0.000000e+00
    outer loop
      vertex -1.298600e+01 -5.851000e+00 1.500000e+00
      vertex -1.298600e+01 -5.851000e+00 0.000000e+00
      vertex -1.210100e+01 -6.736000e+00 0.000000e+00
    endloop
  endfacet
  facet normal -7.071068e-01 -7.071068e-01 0.000000e+00
    outer loop
      vertex -1.210100e+01 -6.736000e+00 1.500000e+00
      vertex -1.298600e+01 -5.851000e+00 1.500000e+00
      vertex -1.210100e+01 -6.736000e+00 0.000000e+00
    endloop
  endfacet
  facet normal -4.539138e-01 -8.910456e-01 0.000000e+00
    outer loop
      vertex -1.210100e+01 -6.736000e+00 1.500000e+00
      vertex -1.210100e+01 -6.736000e+00 0.000000e+00
      vertex -1.098600e+01 -7.304000e+00 0.000000e+00
    endloop
  endfacet
  facet normal -4.539138e-01 -8.910456e-01 0.000000e+00
    outer loop
      vertex -1.098600e+01 -7.304000e+00 1.500000e+00
      vertex -1.210100e+01 -6.736000e+00 1.500000e+00
      vertex -1.098600e+01 -7.304000e+00 0.000000e+00
    endloop
  endfacet
  facet normal -1.566190e-01 -9.876591e-01 0.000000e+00
    outer loop
      vertex -1.098600e+01 -7.304000e+00 1.500000e+00
      vertex -1.098600e+01 -7.304000e+00 0.000000e+00
      vertex -9.750000e+00 -7.500000e+00 0.000000e+00
    endloop
  endfacet
  facet normal -1.566190e-01 -9.876591e-01 0.000000e+00
    outer loop
      vertex -9.750000e+00 -7.500000e+00 1.500000e+00
      vertex -1.098600e+01 -7.304000e+00 1.500000e+00
      vertex -9.750000e+00 -7.500000e+00 0.000000e+00
    endloop
  endfacet
  facet normal 0.000000e+00 -1.000000e+00 0.000000e+00
    outer loop
      vertex -9.750000e+00 -7.500000e+00 1.500000e+00
      vertex -9.750000e+00 -7.500000e+00 0.000000e+00
      vertex 9.750000e+00 -7.500000e+00 0.000000e+00
    endloop
  endfacet
  facet normal 0.000000e+00 -1.000000e+00 0.000000e+00
    outer loop
      vertex 9.750000e+00 -7.500000e+00 1.500000e+00
      vertex -9.750000e+00 -7.500000e+00 1.500000e+00
      vertex 9.750000e+00 -7.500000e+00 0.000000e+00
    endloop
  endfacet
  facet normal 1.566190e-01 -9.876591e-01 0.000000e+00
    outer loop
      vertex 9.750000e+00 -7.500000e+00 1.500000e+00
      vertex 9.750000e+00 -7.500000e+00 0.000000e+00
      vertex 1.098600e+01 -7.304000e+00 0.000000e+00
    endloop
  endfacet
  facet normal 1.566190e-01 -9.876591e-01 0.000000e+00
    outer loop
      vertex 1.098600e+01 -7.304000e+00 1.500000e+00
      vertex 9.750000e+00 -7.500000e+00 1.500000e+00
      vertex 1.098600e+01 -7.304000e+00 0.000000e+00
    endloop
  endfacet
  facet normal 4.539138e-01 -8.910456e-01 0.000000e+00
    outer loop
      vertex 1.098600e+01 -7.304000e+00 1.500000e+00
      vertex 1.098600e+01 -7.304000e+00 0.000000e+00
      vertex 1.210100e+01 -6.736000e+00 0.000000e+00
    endloop
  endfacet
  facet normal 4.539138e-01 -8.910456e-01 0.000000e+00
    outer loop
      vertex 1.210100e+01 -6.736000e+00 1.500000e+00
      vertex 1.098600e+01 -7.304000e+00 1.500000e+00
      vertex 1.210100e+01 -6.736000e+00 0.000000e+00
    endloop
  endfacet
  facet normal 7.071068e-01 -7.071068e-01 0.000000e+00
    outer loop
      vertex 1.210100e+01 -6.736000e+00 1.500000e+00
      vertex 1.210100e+01 -6.736000e+00 0.000000e+00
      vertex 1.298600e+01 -5.851000e+00 0.000000e+00
    endloop
  endfacet
  facet normal 7.071068e-01 -7.071068e-01 0.000000e+00
    outer loop
      vertex 1.298600e+01 -5.851000e+00 1.500000e+00
      vertex 1.210100e+01 -6.736000e+00 1.500000e+00
      vertex 1.298600e+01 -5.851000e+00 0.000000e+00
    endloop
  endfacet
  facet normal 8.910456e-01 -4.539138e-01 0.000000e+00
    outer loop
      vertex 1.298600e+01 -5.851000e+00 1.500000e+00
      vertex 1.298600e+01 -5.851000e+00 0.000000e+00
      vertex 1.355400e+01 -4.736000e+00 0.000000e+00
    endloop
  endfacet
  facet normal 8.910456e-01 -4.539138e-01 0.000000e+00
    outer loop
      vertex 1.355400e+01 -4.736000e+00 1.500000e+00
      vertex 1.298600e+01 -5.851000e+00 1.500000e+00
      vertex 1.355400e+01 -4.736000e+00 0.000000e+00
    endloop
  endfacet
  facet normal 9.876591e-01 -1.566190e-01 0.000000e+00
    outer loop
      vertex 1.355400e+01 -4.736000e+00 1.500000e+00
      vertex 1.355400e+01 -4.736000e+00 0.000000e+00
      vertex 1.375000e+01 -3.500000e+00 0.000000e+00
    endloop
  endfacet
  facet normal 9.876591e-01 -1.566190e-01 0.000000e+00
    outer loop
      vertex 1.375000e+01 -3.500000e+00 1.500000e+00
      vertex 1.355400e+01 -4.736000e+00 1.500000e+00
      vertex 1.375000e+01 -3.500000e+00 0.000000e+00
    endloop
  endfacet
  facet normal 1.000000e+00 0.000000e+00 0.000000e+00
    outer loop
      vertex 1.375000e+01 -3.500000e+00 1.500000e+00
      vertex 1.375000e+01 -3.500000e+00 0.000000e+00
      vertex 1.375000e+01 3.500000e+00 0.000000e+00
    endloop
  endfacet
  facet normal 1.000000e+00 0.000000e+00 0.000000e+00
    outer loop
      vertex 1.375000e+01 3.500000e+00 1.500000e+00
      vertex 1.375000e+01 -3.500000e+00 1.500000e+00
      vertex 1.375000e+01 3.500000e+00 0.000000e+00
    endloop
  endfacet
  facet normal 9.876591e-01 1.566190e-01 0.000000e+00
    outer loop
      vertex 1.375000e+01 3.500000e+00 0.000000e+00
      vertex 1.355400e+01 4.736000e+00 0.000000e+00
      vertex 1.355400e+01 4.736000e+00 1.500000e+00
    endloop
  endfacet
  facet normal 9.876591e-01 1.566190e-01 0.000000e+00
    outer loop
      vertex 1.375000e+01 3.500000e+00 1.500000e+00
      vertex 1.375000e+01 3.500000e+00 0.000000e+00
      vertex 1.355400e+01 4.736000e+00 1.500000e+00
    endloop
  endfacet
  facet normal 8.910456e-01 4.539138e-01 0.000000e+00
    outer loop
      vertex 1.355400e+01 4.736000e+00 0.000000e+00
      vertex 1.298600e+01 5.851000e+00 0.000000e+00
      vertex 1.298600e+01 5.851000e+00 1.500000e+00
    endloop
  endfacet
  facet normal 8.910456e-01 4.539138e-01 0.000000e+00
    outer loop
      vertex 1.355400e+01 4.736000e+00 1.500000e+00
      vertex 1.355400e+01 4.736000e+00 0.000000e+00
      vertex 1.298600e+01 5.851000e+00 1.500000e+00
    endloop
  endfacet
  facet normal 7.071068e-01 7.071068e-01 0.000000e+00
    outer loop
      vertex 1.298600e+01 5.851000e+00 0.000000e+00
      vertex 1.210100e+01 6.736000e+00 0.000000e+00
      vertex 1.210100e+01 6.736000e+00 1.500000e+00
    endloop
  endfacet
  facet normal 7.071068e-01 7.071068e-01 0.000000e+00
    outer loop
      vertex 1.298600e+01 5.851000e+00 1.500000e+00
      vertex 1.298600e+01 5.851000e+00 0.000000e+00
      vertex 1.210100e+01 6.736000e+00 1.500000e+00
    endloop
  endfacet
  facet normal 4.539138e-01 8.910456e-01 0.000000e+00
    outer loop
      vertex 1.098600e+01 7.304000e+00 0.000000e+00
      vertex 1.098600e+01 7.304000e+00 1.500000e+00
      vertex 1.210100e+01 6.736000e+00 0.000000e+00
    endloop
  endfacet
  facet normal 4.539138e-01 8.910456e-01 0.000000e+00
    outer loop
      vertex 1.210100e+01 6.736000e+00 0.000000e+00
      vertex 1.098600e+01 7.304000e+00 1.500000e+00
      vertex 1.210100e+01 6.736000e+00 1.500000e+00
    endloop
  endfacet
  facet normal 1.566190e-01 9.876591e-01 0.000000e+00
    outer loop
      vertex 9.750000e+00 7.500000e+00 0.000000e+00
      vertex 9.750000e+00 7.500000e+00 1.500000e+00
      vertex 1.098600e+01 7.304000e+00 0.000000e+00
    endloop
  endfacet
  facet normal 1.566190e-01 9.876591e-01 0.000000e+00
    outer loop
      vertex 1.098600e+01 7.304000e+00 0.000000e+00
      vertex 9.750000e+00 7.500000e+00 1.500000e+00
      vertex 1.098600e+01 7.304000e+00 1.500000e+00
    endloop
  endfacet
  facet normal 0.000000e+00 1.000000e+00 0.000000e+00
    outer loop
      vertex -9.750000e+00 7.500000e+00 0.000000e+00
      vertex -9.750000e+00 7.500000e+00 1.500000e+00
      vertex 9.750000e+00 7.500000e+00 0.000000e+00
    endloop
  endfacet
  facet normal 0.000000e+00 1.000000e+00 0.000000e+00
    outer loop
      vertex 9.750000e+00 7.500000e+00 0.000000e+00
      vertex -9.750000e+00 7.500000e+00 1.500000e+00
      vertex 9.750000e+00 7.500000e+00 1.500000e+00
    endloop
  endfacet
  facet normal -1.566190e-01 9.876591e-01 0.000000e+00
    outer loop
      vertex -1.098600e+01 7.304000e+00 0.000000e+00
      vertex -1.098600e+01 7.304000e+00 1.500000e+00
      vertex -9.750000e+00 7.500000e+00 0.000000e+00
    endloop
  endfacet
  facet normal -1.566190e-01 9.876591e-01 0.000000e+00
    outer loop
      vertex -9.750000e+00 7.500000e+00 0.000000e+00
      vertex -1.098600e+01 7.304000e+00 1.500000e+00
      vertex -9.750000e+00 7.500000e+00 1.500000e+00
    endloop
  endfacet
  facet normal -4.539138e-01 8.910456e-01 0.000000e+00
    outer loop
      vertex -1.210100e+01 6.736000e+00 0.000000e+00
      vertex -1.210100e+01 6.736000e+00 1.500000e+00
      vertex -1.098600e+01 7.304000e+00 0.000000e+00
    endloop
  endfacet
  facet normal -4.539138e-01 8.910456e-01 0.000000e+00
    outer loop
      vertex -1.098600e+01 7.304000e+00 0.000000e+00
      vertex -1.210100e+01 6.736000e+00 1.500000e+00
      vertex -1.098600e+01 7.304000e+00 1.500000e+00
    endloop
  endfacet
  facet normal -7.071068e-01 7.071068e-01 0.000000e+00
    outer loop
      vertex -1.298600e+01 5.851000e+00 0.000000e+00
      vertex -1.298600e+01 5.851000e+00 1.500000e+00
      vertex -1.210100e+01 6.736000e+00 0.000000e+00
    endloop
  endfacet
  facet normal -7.071068e-01 7.071068e-01 0.000000e+00
    outer loop
      vertex -1.210100e+01 6.736000e+00 0.000000e+00
      vertex -1.298600e+01 5.851000e+00 1.500000e+00
      vertex -1.210100e+01 6.736000e+00 1.500000e+00
    endloop
  endfacet
  facet normal -8.910456e-01 4.539138e-01 0.000000e+00
    outer loop
      vertex -1.355400e+01 4.736000e+00 0.000000e+00
      vertex -1.355400e+01 4.736000e+00 1.500000e+00
      vertex -1.298600e+01 5.851000e+00 0.000000e+00
    endloop
  endfacet
  facet normal -8.910456e-01 4.539138e-01 0.000000e+00
    outer loop
      vertex -1.298600e+01 5.851000e+00 0.000000e+00
      vertex -1.355400e+01 4.736000e+00 1.500000e+00
      vertex -1.298600e+01 5.851000e+00 1.500000e+00
    endloop
  endfacet
  facet normal -9.876591e-01 1.566190e-01 0.000000e+00
    outer loop
      vertex -1.375000e+01 3.500000e+00 0.000000e+00
      vertex -1.375000e+01 3.500000e+00 1.500000e+00
      vertex -1.355400e+01 4.736000e+00 0.000000e+00
    endloop
  endfacet
  facet normal -9.876591e-01 1.566190e-01 0.000000e+00
    outer loop
      vertex -1.355400e+01 4.736000e+00 0.000000e+00
      vertex -1.375000e+01 3.500000e+00 1.500000e+00
      vertex -1.355400e+01 4.736000e+00 1.500000e+00
    endloop
  endfacet
  facet normal 9.876591e-01 -1.566190e-01 0.000000e+00
    outer loop
      vertex -1.107600e+01 2.809000e+00 0.000000e+00
      vertex -1.107600e+01 2.809000e+00 1.500000e+00
      vertex -1.112500e+01 2.500000e+00 1.500000e+00
    endloop
  endfacet
  facet normal 9.876591e-01 -1.566190e-01 0.000000e+00
    outer loop
      vertex -1.112500e+01 2.500000e+00 0.000000e+00
      vertex -1.107600e+01 2.809000e+00 0.000000e+00
      vertex -1.112500e+01 2.500000e+00 1.500000e+00
    endloop
  endfacet
  facet normal 1.000000e+00 0.000000e+00 0.000000e+00
    outer loop
      vertex -1.112500e+01 2.500000e+00 0.000000e+00
      vertex -1.112500e+01 2.500000e+00 1.500000e+00
      vertex -1.112500e+01 -2.500000e+00 1.500000e+00
    endloop
  endfacet
  facet normal 1.000000e+00 0.000000e+00 0.000000e+00
    outer loop
      vertex -1.112500e+01 -2.500000e+00 0.000000e+00
      vertex -1.112500e+01 2.500000e+00 0.000000e+00
      vertex -1.112500e+01 -2.500000e+00 1.500000e+00
    endloop
  endfacet
  facet normal 8.912100e-01 -4.535910e-01 0.000000e+00
    outer loop
      vertex -1.093400e+01 3.088000e+00 0.000000e+00
      vertex -1.093400e+01 3.088000e+00 1.500000e+00
      vertex -1.107600e+01 2.809000e+00 1.500000e+00
    endloop
  endfacet
  facet normal 8.912100e-01 -4.535910e-01 0.000000e+00
    outer loop
      vertex -1.107600e+01 2.809000e+00 0.000000e+00
      vertex -1.093400e+01 3.088000e+00 0.000000e+00
      vertex -1.107600e+01 2.809000e+00 1.500000e+00
    endloop
  endfacet
  facet normal 7.071068e-01 -7.071068e-01 0.000000e+00
    outer loop
      vertex -1.071300e+01 3.309000e+00 0.000000e+00
      vertex -1.071300e+01 3.309000e+00 1.500000e+00
      vertex -1.093400e+01 3.088000e+00 1.500000e+00
    endloop
  endfacet
  facet normal 7.071068e-01 -7.071068e-01 0.000000e+00
    outer loop
      vertex -1.093400e+01 3.088000e+00 0.000000e+00
      vertex -1.071300e+01 3.309000e+00 0.000000e+00
      vertex -1.093400e+01 3.088000e+00 1.500000e+00
    endloop
  endfacet
  facet normal 4.535910e-01 -8.912100e-01 0.000000e+00
    outer loop
      vertex -1.043400e+01 3.451000e+00 0.000000e+00
      vertex -1.043400e+01 3.451000e+00 1.500000e+00
      vertex -1.071300e+01 3.309000e+00 1.500000e+00
    endloop
  endfacet
  facet normal 4.535910e-01 -8.912100e-01 0.000000e+00
    outer loop
      vertex -1.071300e+01 3.309000e+00 0.000000e+00
      vertex -1.043400e+01 3.451000e+00 0.000000e+00
      vertex -1.071300e+01 3.309000e+00 1.500000e+00
    endloop
  endfacet
  facet normal 1.566190e-01 -9.876591e-01 0.000000e+00
    outer loop
      vertex -1.012500e+01 3.500000e+00 0.000000e+00
      vertex -1.012500e+01 3.500000e+00 1.500000e+00
      vertex -1.043400e+01 3.451000e+00 1.500000e+00
    endloop
  endfacet
  facet normal 1.566190e-01 -9.876591e-01 0.000000e+00
    outer loop
      vertex -1.043400e+01 3.451000e+00 0.000000e+00
      vertex -1.012500e+01 3.500000e+00 0.000000e+00
      vertex -1.043400e+01 3.451000e+00 1.500000e+00
    endloop
  endfacet
  facet normal 0.000000e+00 -1.000000e+00 0.000000e+00
    outer loop
      vertex -9.375000e+00 3.500000e+00 0.000000e+00
      vertex -9.375000e+00 3.500000e+00 1.500000e+00
      vertex -1.012500e+01 3.500000e+00 1.500000e+00
    endloop
  endfacet
  facet normal 0.000000e+00 -1.000000e+00 0.000000e+00
    outer loop
      vertex -1.012500e+01 3.500000e+00 0.000000e+00
      vertex -9.375000e+00 3.500000e+00 0.000000e+00
      vertex -1.012500e+01 3.500000e+00 1.500000e+00
    endloop
  endfacet
  facet normal -1.566190e-01 -9.876591e-01 0.000000e+00
    outer loop
      vertex -9.066000e+00 3.451000e+00 0.000000e+00
      vertex -9.066000e+00 3.451000e+00 1.500000e+00
      vertex -9.375000e+00 3.500000e+00 1.500000e+00
    endloop
  endfacet
  facet normal -1.566190e-01 -9.876591e-01 0.000000e+00
    outer loop
      vertex -9.375000e+00 3.500000e+00 0.000000e+00
      vertex -9.066000e+00 3.451000e+00 0.000000e+00
      vertex -9.375000e+00 3.500000e+00 1.500000e+00
    endloop
  endfacet
  facet normal -4.535910e-01 -8.912100e-01 0.000000e+00
    outer loop
      vertex -8.787000e+00 3.309000e+00 0.000000e+00
      vertex -8.787000e+00 3.309000e+00 1.500000e+00
      vertex -9.066000e+00 3.451000e+00 1.500000e+00
    endloop
  endfacet
  facet normal -4.535910e-01 -8.912100e-01 0.000000e+00
    outer loop
      vertex -9.066000e+00 3.451000e+00 0.000000e+00
      vertex -8.787000e+00 3.309000e+00 0.000000e+00
      vertex -9.066000e+00 3.451000e+00 1.500000e+00
    endloop
  endfacet
  facet normal -7.071068e-01 -7.071068e-01 0.000000e+00
    outer loop
      vertex -8.566000e+00 3.088000e+00 0.000000e+00
      vertex -8.566000e+00 3.088000e+00 1.500000e+00
      vertex -8.787000e+00 3.309000e+00 1.500000e+00
    endloop
  endfacet
  facet normal -7.071068e-01 -7.071068e-01 0.000000e+00
    outer loop
      vertex -8.787000e+00 3.309000e+00 0.000000e+00
      vertex -8.566000e+00 3.088000e+00 0.000000e+00
      vertex -8.787000e+00 3.309000e+00 1.500000e+00
    endloop
  endfacet
  facet normal -8.912100e-01 -4.535910e-01 0.000000e+00
    outer loop
      vertex -8.424000e+00 2.809000e+00 1.500000e+00
      vertex -8.566000e+00 3.088000e+00 1.500000e+00
      vertex -8.424000e+00 2.809000e+00 0.000000e+00
    endloop
  endfacet
  facet normal -8.912100e-01 -4.535910e-01 0.000000e+00
    outer loop
      vertex -8.424000e+00 2.809000e+00 0.000000e+00
      vertex -8.566000e+00 3.088000e+00 1.500000e+00
      vertex -8.566000e+00 3.088000e+00 0.000000e+00
    endloop
  endfacet
  facet normal -9.876591e-01 -1.566190e-01 0.000000e+00
    outer loop
      vertex -8.375000e+00 2.500000e+00 1.500000e+00
      vertex -8.424000e+00 2.809000e+00 1.500000e+00
      vertex -8.375000e+00 2.500000e+00 0.000000e+00
    endloop
  endfacet
  facet normal -9.876591e-01 -1.566190e-01 0.000000e+00
    outer loop
      vertex -8.375000e+00 2.500000e+00 0.000000e+00
      vertex -8.424000e+00 2.809000e+00 1.500000e+00
      vertex -8.424000e+00 2.809000e+00 0.000000e+00
    endloop
  endfacet
  facet normal -1.000000e+00 0.000000e+00 0.000000e+00
    outer loop
      vertex -8.375000e+00 2.500000e+00 1.500000e+00
      vertex -8.375000e+00 2.500000e+00 0.000000e+00
      vertex -8.375000e+00 -2.500000e+00 1.500000e+00
    endloop
  endfacet
  facet normal -1.000000e+00 0.000000e+00 0.000000e+00
    outer loop
      vertex -8.375000e+00 -2.500000e+00 1.500000e+00
      vertex -8.375000e+00 2.500000e+00 0.000000e+00
      vertex -8.375000e+00 -2.500000e+00 0.000000e+00
    endloop
  endfacet
  facet normal -9.876591e-01 1.566190e-01 0.000000e+00
    outer loop
      vertex -8.375000e+00 -2.500000e+00 1.500000e+00
      vertex -8.375000e+00 -2.500000e+00 0.000000e+00
      vertex -8.424000e+00 -2.809000e+00 1.500000e+00
    endloop
  endfacet
  facet normal -9.876591e-01 1.566190e-01 0.000000e+00
    outer loop
      vertex -8.424000e+00 -2.809000e+00 1.500000e+00
      vertex -8.375000e+00 -2.500000e+00 0.000000e+00
      vertex -8.424000e+00 -2.809000e+00 0.000000e+00
    endloop
  endfacet
  facet normal -8.912100e-01 4.535910e-01 0.000000e+00
    outer loop
      vertex -8.424000e+00 -2.809000e+00 1.500000e+00
      vertex -8.424000e+00 -2.809000e+00 0.000000e+00
      vertex -8.566000e+00 -3.088000e+00 1.500000e+00
    endloop
  endfacet
  facet normal -8.912100e-01 4.535910e-01 0.000000e+00
    outer loop
      vertex -8.566000e+00 -3.088000e+00 1.500000e+00
      vertex -8.424000e+00 -2.809000e+00 0.000000e+00
      vertex -8.566000e+00 -3.088000e+00 0.000000e+00
    endloop
  endfacet
  facet normal -7.071068e-01 7.071068e-01 0.000000e+00
    outer loop
      vertex -8.566000e+00 -3.088000e+00 1.500000e+00
      vertex -8.566000e+00 -3.088000e+00 0.000000e+00
      vertex -8.787000e+00 -3.309000e+00 1.500000e+00
    endloop
  endfacet
  facet normal -7.071068e-01 7.071068e-01 0.000000e+00
    outer loop
      vertex -8.787000e+00 -3.309000e+00 1.500000e+00
      vertex -8.566000e+00 -3.088000e+00 0.000000e+00
      vertex -8.787000e+00 -3.309000e+00 0.000000e+00
    endloop
  endfacet
  facet normal -4.535910e-01 8.912100e-01 0.000000e+00
    outer loop
      vertex -8.787000e+00 -3.309000e+00 1.500000e+00
      vertex -8.787000e+00 -3.309000e+00 0.000000e+00
      vertex -9.066000e+00 -3.451000e+00 1.500000e+00
    endloop
  endfacet
  facet normal -4.535910e-01 8.912100e-01 0.000000e+00
    outer loop
      vertex -9.066000e+00 -3.451000e+00 1.500000e+00
      vertex -8.787000e+00 -3.309000e+00 0.000000e+00
      vertex -9.066000e+00 -3.451000e+00 0.000000e+00
    endloop
  endfacet
  facet normal -1.566190e-01 9.876591e-01 0.000000e+00
    outer loop
      vertex -9.066000e+00 -3.451000e+00 1.500000e+00
      vertex -9.066000e+00 -3.451000e+00 0.000000e+00
      vertex -9.375000e+00 -3.500000e+00 1.500000e+00
    endloop
  endfacet
  facet normal -1.566190e-01 9.876591e-01 0.000000e+00
    outer loop
      vertex -9.375000e+00 -3.500000e+00 1.500000e+00
      vertex -9.066000e+00 -3.451000e+00 0.000000e+00
      vertex -9.375000e+00 -3.500000e+00 0.000000e+00
    endloop
  endfacet
  facet normal 0.000000e+00 1.000000e+00 0.000000e+00
    outer loop
      vertex -9.375000e+00 -3.500000e+00 1.500000e+00
      vertex -9.375000e+00 -3.500000e+00 0.000000e+00
      vertex -1.012500e+01 -3.500000e+00 1.500000e+00
    endloop
  endfacet
  facet normal 0.000000e+00 1.000000e+00 0.000000e+00
    outer loop
      vertex -1.012500e+01 -3.500000e+00 1.500000e+00
      vertex -9.375000e+00 -3.500000e+00 0.000000e+00
      vertex -1.012500e+01 -3.500000e+00 0.000000e+00
    endloop
  endfacet
  facet normal 1.566190e-01 9.876591e-01 0.000000e+00
    outer loop
      vertex -1.012500e+01 -3.500000e+00 1.500000e+00
      vertex -1.012500e+01 -3.500000e+00 0.000000e+00
      vertex -1.043400e+01 -3.451000e+00 1.500000e+00
    endloop
  endfacet
  facet normal 1.566190e-01 9.876591e-01 0.000000e+00
    outer loop
      vertex -1.043400e+01 -3.451000e+00 1.500000e+00
      vertex -1.012500e+01 -3.500000e+00 0.000000e+00
      vertex -1.043400e+01 -3.451000e+00 0.000000e+00
    endloop
  endfacet
  facet normal 4.535910e-01 8.912100e-01 0.000000e+00
    outer loop
      vertex -1.043400e+01 -3.451000e+00 1.500000e+00
      vertex -1.043400e+01 -3.451000e+00 0.000000e+00
      vertex -1.071300e+01 -3.309000e+00 1.500000e+00
    endloop
  endfacet
  facet normal 4.535910e-01 8.912100e-01 0.000000e+00
    outer loop
      vertex -1.071300e+01 -3.309000e+00 1.500000e+00
      vertex -1.043400e+01 -3.451000e+00 0.000000e+00
      vertex -1.071300e+01 -3.309000e+00 0.000000e+00
    endloop
  endfacet
  facet normal 7.071068e-01 7.071068e-01 0.000000e+00
    outer loop
      vertex -1.071300e+01 -3.309000e+00 1.500000e+00
      vertex -1.071300e+01 -3.309000e+00 0.000000e+00
      vertex -1.093400e+01 -3.088000e+00 1.500000e+00
    endloop
  endfacet
  facet normal 7.071068e-01 7.071068e-01 0.000000e+00
    outer loop
      vertex -1.093400e+01 -3.088000e+00 1.500000e+00
      vertex -1.071300e+01 -3.309000e+00 0.000000e+00
      vertex -1.093400e+01 -3.088000e+00 0.000000e+00
    endloop
  endfacet
  facet normal 8.912100e-01 4.535910e-01 0.000000e+00
    outer loop
      vertex -1.107600e+01 -2.809000e+00 1.500000e+00
      vertex -1.093400e+01 -3.088000e+00 1.500000e+00
      vertex -1.093400e+01 -3.088000e+00 0.000000e+00
    endloop
  endfacet
  facet normal 8.912100e-01 4.535910e-01 0.000000e+00
    outer loop
      vertex -1.107600e+01 -2.809000e+00 0.000000e+00
      vertex -1.107600e+01 -2.809000e+00 1.500000e+00
      vertex -1.093400e+01 -3.088000e+00 0.000000e+00
    endloop
  endfacet
  facet normal 9.876591e-01 1.566190e-01 0.000000e+00
    outer loop
      vertex -1.112500e+01 -2.500000e+00 1.500000e+00
      vertex -1.107600e+01 -2.809000e+00 1.500000e+00
      vertex -1.107600e+01 -2.809000e+00 0.000000e+00
    endloop
  endfacet
  facet normal 9.876591e-01 1.566190e-01 0.000000e+00
    outer loop
      vertex -1.112500e+01 -2.500000e+00 0.000000e+00
      vertex -1.112500e+01 -2.500000e+00 1.500000e+00
      vertex -1.107600e+01 -2.809000e+00 0.000000e+00
    endloop
  endfacet
  facet normal 9.876591e-01 -1.566190e-01 0.000000e+00
    outer loop
      vertex -3.076000e+00 2.809000e+00 0.000000e+00
      vertex -3.076000e+00 2.809000e+00 1.500000e+00
      vertex -3.125000e+00 2.500000e+00 1.500000e+00
    endloop
  endfacet
  facet normal 9.876591e-01 -1.566190e-01 0.000000e+00
    outer loop
      vertex -3.125000e+00 2.500000e+00 0.000000e+00
      vertex -3.076000e+00 2.809000e+00 0.000000e+00
      vertex -3.125000e+00 2.500000e+00 1.500000e+00
    endloop
  endfacet
  facet normal 1.000000e+00 0.000000e+00 0.000000e+00
    outer loop
      vertex -3.125000e+00 2.500000e+00 0.000000e+00
      vertex -3.125000e+00 2.500000e+00 1.500000e+00
      vertex -3.125000e+00 -2.500000e+00 1.500000e+00
    endloop
  endfacet
  facet normal 1.000000e+00 0.000000e+00 0.000000e+00
    outer loop
      vertex -3.125000e+00 -2.500000e+00 0.000000e+00
      vertex -3.125000e+00 2.500000e+00 0.000000e+00
      vertex -3.125000e+00 -2.500000e+00 1.500000e+00
    endloop
  endfacet
  facet normal 8.912100e-01 -4.535910e-01 0.000000e+00
    outer loop
      vertex -2.934000e+00 3.088000e+00 0.000000e+00
      vertex -2.934000e+00 3.088000e+00 1.500000e+00
      vertex -3.076000e+00 2.809000e+00 1.500000e+00
    endloop
  endfacet
  facet normal 8.912100e-01 -4.535910e-01 0.000000e+00
    outer loop
      vertex -3.076000e+00 2.809000e+00 0.000000e+00
      vertex -2.934000e+00 3.088000e+00 0.000000e+00
      vertex -3.076000e+00 2.809000e+00 1.500000e+00
    endloop
  endfacet
  facet normal 7.071068e-01 -7.071068e-01 0.000000e+00
    outer loop
      vertex -2.713000e+00 3.309000e+00 0.000000e+00
      vertex -2.713000e+00 3.309000e+00 1.500000e+00
      vertex -2.934000e+00 3.088000e+00 1.500000e+00
    endloop
  endfacet
  facet normal 7.071068e-01 -7.071068e-01 0.000000e+00
    outer loop
      vertex -2.934000e+00 3.088000e+00 0.000000e+00
      vertex -2.713000e+00 3.309000e+00 0.000000e+00
      vertex -2.934000e+00 3.088000e+00 1.500000e+00
    endloop
  endfacet
  facet normal 4.535910e-01 -8.912100e-01 0.000000e+00
    outer loop
      vertex -2.434000e+00 3.451000e+00 0.000000e+00
      vertex -2.434000e+00 3.451000e+00 1.500000e+00
      vertex -2.713000e+00 3.309000e+00 1.500000e+00
    endloop
  endfacet
  facet normal 4.535910e-01 -8.912100e-01 0.000000e+00
    outer loop
      vertex -2.713000e+00 3.309000e+00 0.000000e+00
      vertex -2.434000e+00 3.451000e+00 0.000000e+00
      vertex -2.713000e+00 3.309000e+00 1.500000e+00
    endloop
  endfacet
  facet normal 1.566190e-01 -9.876591e-01 0.000000e+00
    outer loop
      vertex -2.125000e+00 3.500000e+00 0.000000e+00
      vertex -2.125000e+00 3.500000e+00 1.500000e+00
      vertex -2.434000e+00 3.451000e+00 1.500000e+00
    endloop
  endfacet
  facet normal 1.566190e-01 -9.876591e-01 0.000000e+00
    outer loop
      vertex -2.434000e+00 3.451000e+00 0.000000e+00
      vertex -2.125000e+00 3.500000e+00 0.000000e+00
      vertex -2.434000e+00 3.451000e+00 1.500000e+00
    endloop
  endfacet
  facet normal 0.000000e+00 -1.000000e+00 0.000000e+00
    outer loop
      vertex -1.375000e+00 3.500000e+00 0.000000e+00
      vertex -1.375000e+00 3.500000e+00 1.500000e+00
      vertex -2.125000e+00 3.500000e+00 1.500000e+00
    endloop
  endfacet
  facet normal 0.000000e+00 -1.000000e+00 0.000000e+00
    outer loop
      vertex -2.125000e+00 3.500000e+00 0.000000e+00
      vertex -1.375000e+00 3.500000e+00 0.000000e+00
      vertex -2.125000e+00 3.500000e+00 1.500000e+00
    endloop
  endfacet
  facet normal -1.566190e-01 -9.876591e-01 0.000000e+00
    outer loop
      vertex -1.066000e+00 3.451000e+00 0.000000e+00
      vertex -1.066000e+00 3.451000e+00 1.500000e+00
      vertex -1.375000e+00 3.500000e+00 1.500000e+00
    endloop
  endfacet
  facet normal -1.566190e-01 -9.876591e-01 0.000000e+00
    outer loop
      vertex -1.375000e+00 3.500000e+00 0.000000e+00
      vertex -1.066000e+00 3.451000e+00 0.000000e+00
      vertex -1.375000e+00 3.500000e+00 1.500000e+00
    endloop
  endfacet
  facet normal -4.535910e-01 -8.912100e-01 0.000000e+00
    outer loop
      vertex -7.869997e-01 3.309000e+00 0.000000e+00
      vertex -7.869997e-01 3.309000e+00 1.500000e+00
      vertex -1.066000e+00 3.451000e+00 1.500000e+00
    endloop
  endfacet
  facet normal -4.535910e-01 -8.912100e-01 0.000000e+00
    outer loop
      vertex -1.066000e+00 3.451000e+00 0.000000e+00
      vertex -7.869997e-01 3.309000e+00 0.000000e+00
      vertex -1.066000e+00 3.451000e+00 1.500000e+00
    endloop
  endfacet
  facet normal -7.071068e-01 -7.071068e-01 0.000000e+00
    outer loop
      vertex -5.660000e-01 3.088000e+00 0.000000e+00
      vertex -5.660000e-01 3.088000e+00 1.500000e+00
      vertex -7.869997e-01 3.309000e+00 1.500000e+00
    endloop
  endfacet
  facet normal -7.071068e-01 -7.071068e-01 0.000000e+00
    outer loop
      vertex -7.869997e-01 3.309000e+00 0.000000e+00
      vertex -5.660000e-01 3.088000e+00 0.000000e+00
      vertex -7.869997e-01 3.309000e+00 1.500000e+00
    endloop
  endfacet
  facet normal -8.912100e-01 -4.535910e-01 0.000000e+00
    outer loop
      vertex -4.239998e-01 2.809000e+00 1.500000e+00
      vertex -5.660000e-01 3.088000e+00 1.500000e+00
      vertex -4.239998e-01 2.809000e+00 0.000000e+00
    endloop
  endfacet
  facet normal -8.912100e-01 -4.535910e-01 0.000000e+00
    outer loop
      vertex -4.239998e-01 2.809000e+00 0.000000e+00
      vertex -5.660000e-01 3.088000e+00 1.500000e+00
      vertex -5.660000e-01 3.088000e+00 0.000000e+00
    endloop
  endfacet
  facet normal -9.876591e-01 -1.566190e-01 0.000000e+00
    outer loop
      vertex -3.750000e-01 2.500000e+00 1.500000e+00
      vertex -4.239998e-01 2.809000e+00 1.500000e+00
      vertex -3.750000e-01 2.500000e+00 0.000000e+00
    endloop
  endfacet
  facet normal -9.876591e-01 -1.566190e-01 0.000000e+00
    outer loop
      vertex -3.750000e-01 2.500000e+00 0.000000e+00
      vertex -4.239998e-01 2.809000e+00 1.500000e+00
      vertex -4.239998e-01 2.809000e+00 0.000000e+00
    endloop
  endfacet
  facet normal -1.000000e+00 0.000000e+00 0.000000e+00
    outer loop
      vertex -3.750000e-01 2.500000e+00 1.500000e+00
      vertex -3.750000e-01 2.500000e+00 0.000000e+00
      vertex -3.750000e-01 -2.500000e+00 1.500000e+00
    endloop
  endfacet
  facet normal -1.000000e+00 0.000000e+00 0.000000e+00
    outer loop
      vertex -3.750000e-01 -2.500000e+00 1.500000e+00
      vertex -3.750000e-01 2.500000e+00 0.000000e+00
      vertex -3.750000e-01 -2.500000e+00 0.000000e+00
    endloop
  endfacet
  facet normal -9.876591e-01 1.566190e-01 0.000000e+00
    outer loop
      vertex -3.750000e-01 -2.500000e+00 1.500000e+00
      vertex -3.750000e-01 -2.500000e+00 0.000000e+00
      vertex -4.239998e-01 -2.809000e+00 1.500000e+00
    endloop
  endfacet
  facet normal -9.876591e-01 1.566190e-01 0.000000e+00
    outer loop
      vertex -4.239998e-01 -2.809000e+00 1.500000e+00
      vertex -3.750000e-01 -2.500000e+00 0.000000e+00
      vertex -4.239998e-01 -2.809000e+00 0.000000e+00
    endloop
  endfacet
  facet normal -8.912100e-01 4.535910e-01 0.000000e+00
    outer loop
      vertex -4.239998e-01 -2.809000e+00 1.500000e+00
      vertex -4.239998e-01 -2.809000e+00 0.000000e+00
      vertex -5.660000e-01 -3.088000e+00 1.500000e+00
    endloop
  endfacet
  facet normal -8.912100e-01 4.535910e-01 0.000000e+00
    outer loop
      vertex -5.660000e-01 -3.088000e+00 1.500000e+00
      vertex -4.239998e-01 -2.809000e+00 0.000000e+00
      vertex -5.660000e-01 -3.088000e+00 0.000000e+00
    endloop
  endfacet
  facet normal -7.071068e-01 7.071068e-01 0.000000e+00
    outer loop
      vertex -5.660000e-01 -3.088000e+00 1.500000e+00
      vertex -5.660000e-01 -3.088000e+00 0.000000e+00
      vertex -7.869997e-01 -3.309000e+00 1.500000e+00
    endloop
  endfacet
  facet normal -7.071068e-01 7.071068e-01 0.000000e+00
    outer loop
      vertex -7.869997e-01 -3.309000e+00 1.500000e+00
      vertex -5.660000e-01 -3.088000e+00 0.000000e+00
      vertex -7.869997e-01 -3.309000e+00 0.000000e+00
    endloop
  endfacet
  facet normal -4.535910e-01 8.912100e-01 0.000000e+00
    outer loop
      vertex -7.869997e-01 -3.309000e+00 1.500000e+00
      vertex -7.869997e-01 -3.309000e+00 0.000000e+00
      vertex -1.066000e+00 -3.451000e+00 1.500000e+00
    endloop
  endfacet
  facet normal -4.535910e-01 8.912100e-01 0.000000e+00
    outer loop
      vertex -1.066000e+00 -3.451000e+00 1.500000e+00
      vertex -7.869997e-01 -3.309000e+00 0.000000e+00
      vertex -1.066000e+00 -3.451000e+00 0.000000e+00
    endloop
  endfacet
  facet normal -1.566190e-01 9.876591e-01 0.000000e+00
    outer loop
      vertex -1.066000e+00 -3.451000e+00 1.500000e+00
      vertex -1.066000e+00 -3.451000e+00 0.000000e+00
      vertex -1.375000e+00 -3.500000e+00 1.500000e+00
    endloop
  endfacet
  facet normal -1.566190e-01 9.876591e-01 0.000000e+00
    outer loop
      vertex -1.375000e+00 -3.500000e+00 1.500000e+00
      vertex -1.066000e+00 -3.451000e+00 0.000000e+00
      vertex -1.375000e+00 -3.500000e+00 0.000000e+00
    endloop
  endfacet
  facet normal 0.000000e+00 1.000000e+00 0.000000e+00
    outer loop
      vertex -1.375000e+00 -3.500000e+00 1.500000e+00
      vertex -1.375000e+00 -3.500000e+00 0.000000e+00
      vertex -2.125000e+00 -3.500000e+00 1.500000e+00
    endloop
  endfacet
  facet normal 0.000000e+00 1.000000e+00 0.000000e+00
    outer loop
      vertex -2.125000e+00 -3.500000e+00 1.500000e+00
      vertex -1.375000e+00 -3.500000e+00 0.000000e+00
      vertex -2.125000e+00 -3.500000e+00 0.000000e+00
    endloop
  endfacet
  facet normal 1.566190e-01 9.876591e-01 0.000000e+00
    outer loop
      vertex -2.125000e+00 -3.500000e+00 1.500000e+00
      vertex -2.125000e+00 -3.500000e+00 0.000000e+00
      vertex -2.434000e+00 -3.451000e+00 1.500000e+00
    endloop
  endfacet
  facet normal 1.566190e-01 9.876591e-01 0.000000e+00
    outer loop
      vertex -2.434000e+00 -3.451000e+00 1.500000e+00
      vertex -2.125000e+00 -3.500000e+00 0.000000e+00
      vertex -2.434000e+00 -3.451000e+00 0.000000e+00
    endloop
  endfacet
  facet normal 4.535910e-01 8.912100e-01 0.000000e+00
    outer loop
      vertex -2.434000e+00 -3.451000e+00 1.500000e+00
      vertex -2.434000e+00 -3.451000e+00 0.000000e+00
      vertex -2.713000e+00 -3.309000e+00 1.500000e+00
    endloop
  endfacet
  facet normal 4.535910e-01 8.912100e-01 0.000000e+00
    outer loop
      vertex -2.713000e+00 -3.309000e+00 1.500000e+00
      vertex -2.434000e+00 -3.451000e+00 0.000000e+00
      vertex -2.713000e+00 -3.309000e+00 0.000000e+00
    endloop
  endfacet
  facet normal 7.071068e-01 7.071068e-01 0.000000e+00
    outer loop
      vertex -2.713000e+00 -3.309000e+00 1.500000e+00
      vertex -2.713000e+00 -3.309000e+00 0.000000e+00
      vertex -2.934000e+00 -3.088000e+00 1.500000e+00
    endloop
  endfacet
  facet normal 7.071068e-01 7.071068e-01 0.000000e+00
    outer loop
      vertex -2.934000e+00 -3.088000e+00 1.500000e+00
      vertex -2.713000e+00 -3.309000e+00 0.000000e+00
      vertex -2.934000e+00 -3.088000e+00 0.000000e+00
    endloop
  endfacet
  facet normal 8.912100e-01 4.535910e-01 0.000000e+00
    outer loop
      vertex -3.076000e+00 -2.809000e+00 1.500000e+00
      vertex -2.934000e+00 -3.088000e+00 1.500000e+00
      vertex -2.934000e+00 -3.088000e+00 0.000000e+00
    endloop
  endfacet
  facet normal 8.912100e-01 4.535910e-01 0.000000e+00
    outer loop
      vertex -3.076000e+00 -2.809000e+00 0.000000e+00
      vertex -3.076000e+00 -2.809000e+00 1.500000e+00
      vertex -2.934000e+00 -3.088000e+00 0.000000e+00
    endloop
  endfacet
  facet normal 9.876591e-01 1.566190e-01 0.000000e+00
    outer loop
      vertex -3.125000e+00 -2.500000e+00 1.500000e+00
      vertex -3.076000e+00 -2.809000e+00 1.500000e+00
      vertex -3.076000e+00 -2.809000e+00 0.000000e+00
    endloop
  endfacet
  facet normal 9.876591e-01 1.566190e-01 0.000000e+00
    outer loop
      vertex -3.125000e+00 -2.500000e+00 0.000000e+00
      vertex -3.125000e+00 -2.500000e+00 1.500000e+00
      vertex -3.076000e+00 -2.809000e+00 0.000000e+00
    endloop
  endfacet
  facet normal 9.876882e-01 -1.564350e-01 0.000000e+00
    outer loop
      vertex 3.634600e+00 8.498001e-01 0.000000e+00
      vertex 3.634600e+00 8.498001e-01 1.500000e+00
      vertex 3.500000e+00 0.000000e+00 1.500000e+00
    endloop
  endfacet
  facet normal 9.876882e-01 -1.564350e-01 0.000000e+00
    outer loop
      vertex 3.500000e+00 0.000000e+00 0.000000e+00
      vertex 3.634600e+00 8.498001e-01 0.000000e+00
      vertex 3.500000e+00 0.000000e+00 1.500000e+00
    endloop
  endfacet
  facet normal 9.876882e-01 1.564350e-01 0.000000e+00
    outer loop
      vertex 3.500000e+00 0.000000e+00 1.500000e+00
      vertex 3.634600e+00 -8.498001e-01 1.500000e+00
      vertex 3.634600e+00 -8.498001e-01 0.000000e+00
    endloop
  endfacet
  facet normal 9.876882e-01 1.564350e-01 0.000000e+00
    outer loop
      vertex 3.500000e+00 0.000000e+00 0.000000e+00
      vertex 3.500000e+00 0.000000e+00 1.500000e+00
      vertex 3.634600e+00 -8.498001e-01 0.000000e+00
    endloop
  endfacet
  facet normal 8.910068e-01 -4.539899e-01 0.000000e+00
    outer loop
      vertex 4.025200e+00 1.616410e+00 0.000000e+00
      vertex 4.025200e+00 1.616410e+00 1.500000e+00
      vertex 3.634600e+00 8.498001e-01 1.500000e+00
    endloop
  endfacet
  facet normal 8.910068e-01 -4.539899e-01 0.000000e+00
    outer loop
      vertex 3.634600e+00 8.498001e-01 0.000000e+00
      vertex 4.025200e+00 1.616410e+00 0.000000e+00
      vertex 3.634600e+00 8.498001e-01 1.500000e+00
    endloop
  endfacet
  facet normal 7.071068e-01 -7.071068e-01 0.000000e+00
    outer loop
      vertex 4.633600e+00 2.224800e+00 0.000000e+00
      vertex 4.633600e+00 2.224800e+00 1.500000e+00
      vertex 4.025200e+00 1.616410e+00 1.500000e+00
    endloop
  endfacet
  facet normal 7.071068e-01 -7.071068e-01 0.000000e+00
    outer loop
      vertex 4.025200e+00 1.616410e+00 0.000000e+00
      vertex 4.633600e+00 2.224800e+00 0.000000e+00
      vertex 4.025200e+00 1.616410e+00 1.500000e+00
    endloop
  endfacet
  facet normal 4.539899e-01 -8.910068e-01 0.000000e+00
    outer loop
      vertex 5.400200e+00 2.615400e+00 0.000000e+00
      vertex 5.400200e+00 2.615400e+00 1.500000e+00
      vertex 4.633600e+00 2.224800e+00 1.500000e+00
    endloop
  endfacet
  facet normal 4.539899e-01 -8.910068e-01 0.000000e+00
    outer loop
      vertex 4.633600e+00 2.224800e+00 0.000000e+00
      vertex 5.400200e+00 2.615400e+00 0.000000e+00
      vertex 4.633600e+00 2.224800e+00 1.500000e+00
    endloop
  endfacet
  facet normal 1.564350e-01 -9.876882e-01 0.000000e+00
    outer loop
      vertex 6.250000e+00 2.750000e+00 0.000000e+00
      vertex 6.250000e+00 2.750000e+00 1.500000e+00
      vertex 5.400200e+00 2.615400e+00 1.500000e+00
    endloop
  endfacet
  facet normal 1.564350e-01 -9.876882e-01 0.000000e+00
    outer loop
      vertex 5.400200e+00 2.615400e+00 0.000000e+00
      vertex 6.250000e+00 2.750000e+00 0.000000e+00
      vertex 5.400200e+00 2.615400e+00 1.500000e+00
    endloop
  endfacet
  facet normal -1.564350e-01 -9.876882e-01 0.000000e+00
    outer loop
      vertex 7.099800e+00 2.615400e+00 0.000000e+00
      vertex 7.099800e+00 2.615400e+00 1.500000e+00
      vertex 6.250000e+00 2.750000e+00 1.500000e+00
    endloop
  endfacet
  facet normal -1.564350e-01 -9.876882e-01 0.000000e+00
    outer loop
      vertex 6.250000e+00 2.750000e+00 0.000000e+00
      vertex 7.099800e+00 2.615400e+00 0.000000e+00
      vertex 6.250000e+00 2.750000e+00 1.500000e+00
    endloop
  endfacet
  facet normal -4.539899e-01 -8.910068e-01 0.000000e+00
    outer loop
      vertex 7.866400e+00 2.224800e+00 0.000000e+00
      vertex 7.866400e+00 2.224800e+00 1.500000e+00
      vertex 7.099800e+00 2.615400e+00 1.500000e+00
    endloop
  endfacet
  facet normal -4.539899e-01 -8.910068e-01 0.000000e+00
    outer loop
      vertex 7.099800e+00 2.615400e+00 0.000000e+00
      vertex 7.866400e+00 2.224800e+00 0.000000e+00
      vertex 7.099800e+00 2.615400e+00 1.500000e+00
    endloop
  endfacet
  facet normal -7.071068e-01 -7.071068e-01 0.000000e+00
    outer loop
      vertex 8.474800e+00 1.616410e+00 0.000000e+00
      vertex 8.474800e+00 1.616410e+00 1.500000e+00
      vertex 7.866400e+00 2.224800e+00 1.500000e+00
    endloop
  endfacet
  facet normal -7.071068e-01 -7.071068e-01 0.000000e+00
    outer loop
      vertex 7.866400e+00 2.224800e+00 0.000000e+00
      vertex 8.474800e+00 1.616410e+00 0.000000e+00
      vertex 7.866400e+00 2.224800e+00 1.500000e+00
    endloop
  endfacet
  facet normal -8.910068e-01 -4.539899e-01 0.000000e+00
    outer loop
      vertex 8.865400e+00 8.498001e-01 1.500000e+00
      vertex 8.474800e+00 1.616410e+00 1.500000e+00
      vertex 8.865400e+00 8.498001e-01 0.000000e+00
    endloop
  endfacet
  facet normal -8.910068e-01 -4.539899e-01 0.000000e+00
    outer loop
      vertex 8.865400e+00 8.498001e-01 0.000000e+00
      vertex 8.474800e+00 1.616410e+00 1.500000e+00
      vertex 8.474800e+00 1.616410e+00 0.000000e+00
    endloop
  endfacet
  facet normal -9.876882e-01 -1.564350e-01 0.000000e+00
    outer loop
      vertex 9.000000e+00 0.000000e+00 1.500000e+00
      vertex 8.865400e+00 8.498001e-01 1.500000e+00
      vertex 9.000000e+00 0.000000e+00 0.000000e+00
    endloop
  endfacet
  facet normal -9.876882e-01 -1.564350e-01 0.000000e+00
    outer loop
      vertex 9.000000e+00 0.000000e+00 0.000000e+00
      vertex 8.865400e+00 8.498001e-01 1.500000e+00
      vertex 8.865400e+00 8.498001e-01 0.000000e+00
    endloop
  endfacet
  facet normal -9.876882e-01 1.564350e-01 0.000000e+00
    outer loop
      vertex 9.000000e+00 0.000000e+00 1.500000e+00
      vertex 9.000000e+00 0.000000e+00 0.000000e+00
      vertex 8.865400e+00 -8.498001e-01 1.500000e+00
    endloop
  endfacet
  facet normal -9.876882e-01 1.564350e-01 0.000000e+00
    outer loop
      vertex 8.865400e+00 -8.498001e-01 1.500000e+00
      vertex 9.000000e+00 0.000000e+00 0.000000e+00
      vertex 8.865400e+00 -8.498001e-01 0.000000e+00
    endloop
  endfacet
  facet normal -8.910068e-01 4.539899e-01 0.000000e+00
    outer loop
      vertex 8.865400e+00 -8.498001e-01 1.500000e+00
      vertex 8.865400e+00 -8.498001e-01 0.000000e+00
      vertex 8.474800e+00 -1.616410e+00 1.500000e+00
    endloop
  endfacet
  facet normal -8.910068e-01 4.539899e-01 0.000000e+00
    outer loop
      vertex 8.474800e+00 -1.616410e+00 1.500000e+00
      vertex 8.865400e+00 -8.498001e-01 0.000000e+00
      vertex 8.474800e+00 -1.616410e+00 0.000000e+00
    endloop
  endfacet
  facet normal -7.071068e-01 7.071068e-01 0.000000e+00
    outer loop
      vertex 8.474800e+00 -1.616410e+00 1.500000e+00
      vertex 8.474800e+00 -1.616410e+00 0.000000e+00
      vertex 7.866400e+00 -2.224800e+00 1.500000e+00
    endloop
  endfacet
  facet normal -7.071068e-01 7.071068e-01 0.000000e+00
    outer loop
      vertex 7.866400e+00 -2.224800e+00 1.500000e+00
      vertex 8.474800e+00 -1.616410e+00 0.000000e+00
      vertex 7.866400e+00 -2.224800e+00 0.000000e+00
    endloop
  endfacet
  facet normal -4.539899e-01 8.910068e-01 0.000000e+00
    outer loop
      vertex 7.866400e+00 -2.224800e+00 1.500000e+00
      vertex 7.866400e+00 -2.224800e+00 0.000000e+00
      vertex 7.099800e+00 -2.615400e+00 1.500000e+00
    endloop
  endfacet
  facet normal -4.539899e-01 8.910068e-01 0.000000e+00
    outer loop
      vertex 7.099800e+00 -2.615400e+00 1.500000e+00
      vertex 7.866400e+00 -2.224800e+00 0.000000e+00
      vertex 7.099800e+00 -2.615400e+00 0.000000e+00
    endloop
  endfacet
  facet normal -1.564350e-01 9.876882e-01 0.000000e+00
    outer loop
      vertex 7.099800e+00 -2.615400e+00 1.500000e+00
      vertex 7.099800e+00 -2.615400e+00 0.000000e+00
      vertex 6.250000e+00 -2.750000e+00 1.500000e+00
    endloop
  endfacet
  facet normal -1.564350e-01 9.876882e-01 0.000000e+00
    outer loop
      vertex 6.250000e+00 -2.750000e+00 1.500000e+00
      vertex 7.099800e+00 -2.615400e+00 0.000000e+00
      vertex 6.250000e+00 -2.750000e+00 0.000000e+00
    endloop
  endfacet
  facet normal 1.564350e-01 9.876882e-01 0.000000e+00
    outer loop
      vertex 6.250000e+00 -2.750000e+00 1.500000e+00
      vertex 6.250000e+00 -2.750000e+00 0.000000e+00
      vertex 5.400200e+00 -2.615400e+00 1.500000e+00
    endloop
  endfacet
  facet normal 1.564350e-01 9.876882e-01 0.000000e+00
    outer loop
      vertex 5.400200e+00 -2.615400e+00 1.500000e+00
      vertex 6.250000e+00 -2.750000e+00 0.000000e+00
      vertex 5.400200e+00 -2.615400e+00 0.000000e+00
    endloop
  endfacet
  facet normal 4.539899e-01 8.910068e-01 0.000000e+00
    outer loop
      vertex 5.400200e+00 -2.615400e+00 1.500000e+00
      vertex 5.400200e+00 -2.615400e+00 0.000000e+00
      vertex 4.633600e+00 -2.224800e+00 1.500000e+00
    endloop
  endfacet
  facet normal 4.539899e-01 8.910068e-01 0.000000e+00
    outer loop
      vertex 4.633600e+00 -2.224800e+00 1.500000e+00
      vertex 5.400200e+00 -2.615400e+00 0.000000e+00
      vertex 4.633600e+00 -2.224800e+00 0.000000e+00
    endloop
  endfacet
  facet normal 7.071068e-01 7.071068e-01 0.000000e+00
    outer loop
      vertex 4.633600e+00 -2.224800e+00 1.500000e+00
      vertex 4.633600e+00 -2.224800e+00 0.000000e+00
      vertex 4.025200e+00 -1.616410e+00 1.500000e+00
    endloop
  endfacet
  facet normal 7.071068e-01 7.071068e-01 0.000000e+00
    outer loop
      vertex 4.025200e+00 -1.616410e+00 1.500000e+00
      vertex 4.633600e+00 -2.224800e+00 0.000000e+00
      vertex 4.025200e+00 -1.616410e+00 0.000000e+00
    endloop
  endfacet
  facet normal 8.910068e-01 4.539899e-01 0.000000e+00
    outer loop
      vertex 3.634600e+00 -8.498001e-01 1.500000e+00
      vertex 4.025200e+00 -1.616410e+00 1.500000e+00
      vertex 4.025200e+00 -1.616410e+00 0.000000e+00
    endloop
  endfacet
  facet normal 8.910068e-01 4.539899e-01 0.000000e+00
    outer loop
      vertex 3.634600e+00 -8.498001e-01 0.000000e+00
      vertex 3.634600e+00 -8.498001e-01 1.500000e+00
      vertex 4.025200e+00 -1.616410e+00 0.000000e+00
    endloop
  endfacet
endsolid Default
